%TF.GenerationSoftware,KiCad,Pcbnew,10.0.6*%
%TF.CreationDate,2026-10-06T17:03:18+03:00*%
%TF.ProjectId,devboard,64657662-6f61-4726-942e-6b696361645f,rev?*%
%TF.SameCoordinates,Original*%
%TF.FileFunction,Paste,Top*%
%TF.FilePolarity,Positive*%
%FSLAX46Y46*%
G04 Gerber Fmt 4.6, Leading zero omitted, Abs format (unit mm)*
G04 Created by KiCad (PCBNEW 10.0.6) date 2026-10-06 17:03:18*
%MOMM*%
%LPD*%
G01*
G04 APERTURE LIST*
G04 Aperture macros list*
%AMRoundRect*
0 Rectangle with rounded corners*
0 $1 Rounding radius*
0 $2 $3 $4 $5 $6 $7 $8 $9 X,Y pos of 4 corners*
0 Add a 4 corners polygon primitive as box body*
4,1,4,$2,$3,$4,$5,$6,$7,$8,$9,$2,$3,0*
0 Add four circle primitives for the rounded corners*
1,1,$1+$1,$2,$3*
1,1,$1+$1,$4,$5*
1,1,$1+$1,$6,$7*
1,1,$1+$1,$8,$9*
0 Add four rect primitives between the rounded corners*
20,1,$1+$1,$2,$3,$4,$5,0*
20,1,$1+$1,$4,$5,$6,$7,0*
20,1,$1+$1,$6,$7,$8,$9,0*
20,1,$1+$1,$8,$9,$2,$3,0*%
G04 Aperture macros list end*
%ADD10RoundRect,0.135000X-0.185000X0.135000X-0.185000X-0.135000X0.185000X-0.135000X0.185000X0.135000X0*%
%ADD11RoundRect,0.150000X0.150000X0.575000X-0.150000X0.575000X-0.150000X-0.575000X0.150000X-0.575000X0*%
%ADD12RoundRect,0.075000X0.075000X0.650000X-0.075000X0.650000X-0.075000X-0.650000X0.075000X-0.650000X0*%
%ADD13RoundRect,0.225000X0.225000X0.250000X-0.225000X0.250000X-0.225000X-0.250000X0.225000X-0.250000X0*%
%ADD14RoundRect,0.150000X0.150000X-0.587500X0.150000X0.587500X-0.150000X0.587500X-0.150000X-0.587500X0*%
%ADD15RoundRect,0.200000X-0.800000X0.200000X-0.800000X-0.200000X0.800000X-0.200000X0.800000X0.200000X0*%
%ADD16RoundRect,0.062500X-0.387500X-0.062500X0.387500X-0.062500X0.387500X0.062500X-0.387500X0.062500X0*%
%ADD17RoundRect,0.040000X-0.040000X-0.605000X0.040000X-0.605000X0.040000X0.605000X-0.040000X0.605000X0*%
%ADD18RoundRect,0.140000X0.170000X-0.140000X0.170000X0.140000X-0.170000X0.140000X-0.170000X-0.140000X0*%
%ADD19RoundRect,0.140000X-0.140000X-0.170000X0.140000X-0.170000X0.140000X0.170000X-0.140000X0.170000X0*%
%ADD20RoundRect,0.050000X-0.050000X-0.387500X0.050000X-0.387500X0.050000X0.387500X-0.050000X0.387500X0*%
%ADD21RoundRect,0.050000X-0.387500X-0.050000X0.387500X-0.050000X0.387500X0.050000X-0.387500X0.050000X0*%
%ADD22RoundRect,0.249999X-0.395001X-0.395001X0.395001X-0.395001X0.395001X0.395001X-0.395001X0.395001X0*%
%ADD23RoundRect,0.140000X-0.206244X-0.077224X0.036244X-0.217224X0.206244X0.077224X-0.036244X0.217224X0*%
%ADD24RoundRect,0.135000X0.135000X0.185000X-0.135000X0.185000X-0.135000X-0.185000X0.135000X-0.185000X0*%
%ADD25RoundRect,0.140000X-0.170000X0.140000X-0.170000X-0.140000X0.170000X-0.140000X0.170000X0.140000X0*%
%ADD26RoundRect,0.140000X0.140000X0.170000X-0.140000X0.170000X-0.140000X-0.170000X0.140000X-0.170000X0*%
%ADD27RoundRect,0.250000X0.450000X0.350000X-0.450000X0.350000X-0.450000X-0.350000X0.450000X-0.350000X0*%
G04 APERTURE END LIST*
D10*
%TO.C,R1*%
X95377000Y-83310000D03*
X95377000Y-84330000D03*
%TD*%
%TO.C,R2*%
X93218000Y-83183000D03*
X93218000Y-84203000D03*
%TD*%
D11*
%TO.C,J1*%
X97250000Y-81545000D03*
X96450000Y-81545000D03*
D12*
X95750000Y-81545000D03*
X94750000Y-81545000D03*
X93250000Y-81545000D03*
X92250000Y-81545000D03*
D11*
X91550000Y-81545000D03*
X90750000Y-81545000D03*
X90750000Y-81545000D03*
X91550000Y-81545000D03*
D12*
X92750000Y-81545000D03*
X93750000Y-81545000D03*
X94250000Y-81545000D03*
X95250000Y-81545000D03*
D11*
X96450000Y-81545000D03*
X97250000Y-81545000D03*
%TD*%
D13*
%TO.C,C13*%
X88475000Y-83750000D03*
X90025000Y-83750000D03*
%TD*%
D14*
%TO.C,U2*%
X92075000Y-85000000D03*
X93025000Y-86875000D03*
X91125000Y-86875000D03*
%TD*%
D13*
%TO.C,C14*%
X91294000Y-88750000D03*
X92844000Y-88750000D03*
%TD*%
D15*
%TO.C,SW1*%
X88646000Y-90492000D03*
X88646000Y-86292000D03*
%TD*%
D10*
%TO.C,R7*%
X89027000Y-92585000D03*
X89027000Y-91565000D03*
%TD*%
%TO.C,R6*%
X88011000Y-94109000D03*
X88011000Y-93089000D03*
%TD*%
D16*
%TO.C,U3*%
X92225000Y-94350000D03*
X92225000Y-94850000D03*
X92225000Y-95350000D03*
X92225000Y-95850000D03*
X89375000Y-95850000D03*
X89375000Y-95350000D03*
X89375000Y-94850000D03*
X89375000Y-94350000D03*
D17*
X90800000Y-95100000D03*
%TD*%
D18*
%TO.C,C17*%
X92760800Y-92407800D03*
X92760800Y-93367800D03*
%TD*%
%TO.C,C10*%
X93853000Y-93770000D03*
X93853000Y-94730000D03*
%TD*%
%TO.C,C2*%
X94894400Y-93550800D03*
X94894400Y-94510800D03*
%TD*%
%TO.C,C1*%
X95859600Y-92770000D03*
X95859600Y-93730000D03*
%TD*%
D10*
%TO.C,R4*%
X94742000Y-96979200D03*
X94742000Y-95959200D03*
%TD*%
%TO.C,R3*%
X95783400Y-96979200D03*
X95783400Y-95959200D03*
%TD*%
D18*
%TO.C,C12*%
X96774000Y-95913000D03*
X96774000Y-96873000D03*
%TD*%
D19*
%TO.C,C3*%
X99159000Y-96520000D03*
X98199000Y-96520000D03*
%TD*%
%TO.C,C5*%
X99080000Y-97500000D03*
X98120000Y-97500000D03*
%TD*%
%TO.C,C6*%
X99667000Y-98425000D03*
X98707000Y-98425000D03*
%TD*%
D20*
%TO.C,U1*%
X91462500Y-98362500D03*
X91862500Y-98362500D03*
X92262500Y-98362500D03*
X92662500Y-98362500D03*
X93062500Y-98362500D03*
X93462500Y-98362500D03*
X93862500Y-98362500D03*
X94262500Y-98362500D03*
X94662500Y-98362500D03*
X95062500Y-98362500D03*
X95462500Y-98362500D03*
X95862500Y-98362500D03*
X96262500Y-98362500D03*
X96662500Y-98362500D03*
D21*
X97500000Y-99200000D03*
X97500000Y-99600000D03*
X97500000Y-100000000D03*
X97500000Y-100400000D03*
X97500000Y-100800000D03*
X97500000Y-101200000D03*
X97500000Y-101600000D03*
X97500000Y-102000000D03*
X97500000Y-102400000D03*
X97500000Y-102800000D03*
X97500000Y-103200000D03*
X97500000Y-103600000D03*
X97500000Y-104000000D03*
X97500000Y-104400000D03*
D20*
X96662500Y-105237500D03*
X96262500Y-105237500D03*
X95862500Y-105237500D03*
X95462500Y-105237500D03*
X95062500Y-105237500D03*
X94662500Y-105237500D03*
X94262500Y-105237500D03*
X93862500Y-105237500D03*
X93462500Y-105237500D03*
X93062500Y-105237500D03*
X92662500Y-105237500D03*
X92262500Y-105237500D03*
X91862500Y-105237500D03*
X91462500Y-105237500D03*
D21*
X90625000Y-104400000D03*
X90625000Y-104000000D03*
X90625000Y-103600000D03*
X90625000Y-103200000D03*
X90625000Y-102800000D03*
X90625000Y-102400000D03*
X90625000Y-102000000D03*
X90625000Y-101600000D03*
X90625000Y-101200000D03*
X90625000Y-100800000D03*
X90625000Y-100400000D03*
X90625000Y-100000000D03*
X90625000Y-99600000D03*
X90625000Y-99200000D03*
D22*
X94862500Y-102600000D03*
X94862500Y-101000000D03*
X93262500Y-102600000D03*
X93262500Y-101000000D03*
%TD*%
D19*
%TO.C,C4*%
X97130000Y-108025000D03*
X96170000Y-108025000D03*
%TD*%
%TO.C,C11*%
X97205000Y-107075000D03*
X96245000Y-107075000D03*
%TD*%
D23*
%TO.C,C7*%
X100440692Y-103565000D03*
X99609308Y-103085000D03*
%TD*%
D24*
%TO.C,R5*%
X93465000Y-107225000D03*
X94485000Y-107225000D03*
%TD*%
D18*
%TO.C,C16*%
X96500000Y-109020000D03*
X96500000Y-109980000D03*
%TD*%
D25*
%TO.C,C15*%
X90500000Y-109980000D03*
X90500000Y-109020000D03*
%TD*%
D26*
%TO.C,C8*%
X88618000Y-102743000D03*
X87658000Y-102743000D03*
%TD*%
D27*
%TO.C,Y1*%
X94600000Y-108650000D03*
X92400000Y-108650000D03*
X92400000Y-110350000D03*
X94600000Y-110350000D03*
%TD*%
D26*
%TO.C,C9*%
X89230000Y-99250000D03*
X88270000Y-99250000D03*
%TD*%
M02*
