M48
; DRILL file KiCad 10.0.6 date 2026-10-06T17:05:23
; FORMAT={-:-/ absolute / metric / decimal}
; #@! TF.CreationDate,2026-10-06T17:05:23+03:00
; #@! TF.GenerationSoftware,Kicad,Pcbnew,10.0.6
; #@! TF.FileFunction,Plated,1,2,PTH
FMAT,2
METRIC
; #@! TA.AperFunction,Plated,PTH,ViaDrill
T1C0.300
; #@! TA.AperFunction,Plated,PTH,ComponentDrill
T2C0.600
; #@! TA.AperFunction,Plated,PTH,ComponentDrill
T3C1.000
%
G90
G05
T1
X86.675Y-91.95
X86.85Y-102.525
X87.125Y-82.475
X87.15Y-84.35
X87.175Y-105.475
X87.6Y-78.7
X87.875Y-98.2
X88.3Y-95.85
X88.9Y-100.584
X89.643Y-100.286
X90.35Y-111.05
X90.6Y-113.45
X91.201Y-97.025
X91.425Y-92.4
X91.562Y-103.949
X91.567Y-101.346
X91.962Y-100.25
X92.05Y-87.275
X93.175Y-94.314
X93.25Y-102.475
X93.35Y-103.9
X93.45Y-100.825
X93.525Y-85.125
X93.725Y-78.225
X94.107Y-88.392
X94.15Y-92.4
X94.223Y-103.906
X94.462Y-97.743
X94.5Y-112.55
X94.736Y-95.117
X94.9Y-92.6
X95.029Y-103.9
X95.225Y-101.25
X95.3Y-102.2
X95.475Y-99.7
X96.324Y-106.175
X96.52Y-100.457
X96.562Y-101.584
X96.563Y-104.302
X96.58Y-103.409
X97.25Y-83.225
X97.896Y-95.73
X98.0Y-112.625
X99.1Y-90.0
X99.25Y-94.975
X101.075Y-104.35
T3
X85.11Y-76.37
X85.11Y-78.91
X85.11Y-81.45
X85.11Y-83.99
X85.11Y-86.53
X85.11Y-89.07
X85.11Y-91.61
X85.11Y-94.15
X85.11Y-96.69
X85.11Y-99.23
X85.11Y-101.77
X85.11Y-104.31
X85.11Y-106.85
X85.11Y-109.39
X85.11Y-111.93
X85.11Y-114.47
X85.11Y-117.01
X85.11Y-119.55
X85.11Y-122.09
X85.11Y-124.63
X91.46Y-124.39
X94.0Y-124.39
X96.54Y-124.39
X102.89Y-76.37
X102.89Y-78.91
X102.89Y-81.45
X102.89Y-83.99
X102.89Y-86.53
X102.89Y-89.07
X102.89Y-91.61
X102.89Y-94.15
X102.89Y-96.69
X102.89Y-99.23
X102.89Y-101.77
X102.89Y-104.31
X102.89Y-106.85
X102.89Y-109.39
X102.89Y-111.93
X102.89Y-114.47
X102.89Y-117.01
X102.89Y-119.55
X102.89Y-122.09
X102.89Y-124.63
T2
G00X89.68Y-76.75
M15
G01X89.68Y-76.15
M16
G05
G00X89.68Y-81.18
M15
G01X89.68Y-80.08
M16
G05
G00X98.32Y-76.75
M15
G01X98.32Y-76.15
M16
G05
G00X98.32Y-81.18
M15
G01X98.32Y-80.08
M16
G05
M30
