%TF.GenerationSoftware,KiCad,Pcbnew,10.0.6*%
%TF.CreationDate,2026-10-06T17:03:18+03:00*%
%TF.ProjectId,devboard,64657662-6f61-4726-942e-6b696361645f,rev?*%
%TF.SameCoordinates,Original*%
%TF.FileFunction,Legend,Top*%
%TF.FilePolarity,Positive*%
%FSLAX46Y46*%
G04 Gerber Fmt 4.6, Leading zero omitted, Abs format (unit mm)*
G04 Created by KiCad (PCBNEW 10.0.6) date 2026-10-06 17:03:18*
%MOMM*%
%LPD*%
G01*
G04 APERTURE LIST*
%ADD10C,0.150000*%
%ADD11C,0.120000*%
G04 APERTURE END LIST*
D10*
X97091666Y-83854819D02*
X97091666Y-84569104D01*
X97091666Y-84569104D02*
X97044047Y-84711961D01*
X97044047Y-84711961D02*
X96948809Y-84807200D01*
X96948809Y-84807200D02*
X96805952Y-84854819D01*
X96805952Y-84854819D02*
X96710714Y-84854819D01*
X98091666Y-84854819D02*
X97520238Y-84854819D01*
X97805952Y-84854819D02*
X97805952Y-83854819D01*
X97805952Y-83854819D02*
X97710714Y-83997676D01*
X97710714Y-83997676D02*
X97615476Y-84092914D01*
X97615476Y-84092914D02*
X97520238Y-84140533D01*
X94138095Y-85392319D02*
X94138095Y-86201842D01*
X94138095Y-86201842D02*
X94185714Y-86297080D01*
X94185714Y-86297080D02*
X94233333Y-86344700D01*
X94233333Y-86344700D02*
X94328571Y-86392319D01*
X94328571Y-86392319D02*
X94519047Y-86392319D01*
X94519047Y-86392319D02*
X94614285Y-86344700D01*
X94614285Y-86344700D02*
X94661904Y-86297080D01*
X94661904Y-86297080D02*
X94709523Y-86201842D01*
X94709523Y-86201842D02*
X94709523Y-85392319D01*
X95138095Y-85487557D02*
X95185714Y-85439938D01*
X95185714Y-85439938D02*
X95280952Y-85392319D01*
X95280952Y-85392319D02*
X95519047Y-85392319D01*
X95519047Y-85392319D02*
X95614285Y-85439938D01*
X95614285Y-85439938D02*
X95661904Y-85487557D01*
X95661904Y-85487557D02*
X95709523Y-85582795D01*
X95709523Y-85582795D02*
X95709523Y-85678033D01*
X95709523Y-85678033D02*
X95661904Y-85820890D01*
X95661904Y-85820890D02*
X95090476Y-86392319D01*
X95090476Y-86392319D02*
X95709523Y-86392319D01*
X90038095Y-92604819D02*
X90038095Y-93414342D01*
X90038095Y-93414342D02*
X90085714Y-93509580D01*
X90085714Y-93509580D02*
X90133333Y-93557200D01*
X90133333Y-93557200D02*
X90228571Y-93604819D01*
X90228571Y-93604819D02*
X90419047Y-93604819D01*
X90419047Y-93604819D02*
X90514285Y-93557200D01*
X90514285Y-93557200D02*
X90561904Y-93509580D01*
X90561904Y-93509580D02*
X90609523Y-93414342D01*
X90609523Y-93414342D02*
X90609523Y-92604819D01*
X90990476Y-92604819D02*
X91609523Y-92604819D01*
X91609523Y-92604819D02*
X91276190Y-92985771D01*
X91276190Y-92985771D02*
X91419047Y-92985771D01*
X91419047Y-92985771D02*
X91514285Y-93033390D01*
X91514285Y-93033390D02*
X91561904Y-93081009D01*
X91561904Y-93081009D02*
X91609523Y-93176247D01*
X91609523Y-93176247D02*
X91609523Y-93414342D01*
X91609523Y-93414342D02*
X91561904Y-93509580D01*
X91561904Y-93509580D02*
X91514285Y-93557200D01*
X91514285Y-93557200D02*
X91419047Y-93604819D01*
X91419047Y-93604819D02*
X91133333Y-93604819D01*
X91133333Y-93604819D02*
X91038095Y-93557200D01*
X91038095Y-93557200D02*
X90990476Y-93509580D01*
X92513095Y-96424819D02*
X92513095Y-97234342D01*
X92513095Y-97234342D02*
X92560714Y-97329580D01*
X92560714Y-97329580D02*
X92608333Y-97377200D01*
X92608333Y-97377200D02*
X92703571Y-97424819D01*
X92703571Y-97424819D02*
X92894047Y-97424819D01*
X92894047Y-97424819D02*
X92989285Y-97377200D01*
X92989285Y-97377200D02*
X93036904Y-97329580D01*
X93036904Y-97329580D02*
X93084523Y-97234342D01*
X93084523Y-97234342D02*
X93084523Y-96424819D01*
X94084523Y-97424819D02*
X93513095Y-97424819D01*
X93798809Y-97424819D02*
X93798809Y-96424819D01*
X93798809Y-96424819D02*
X93703571Y-96567676D01*
X93703571Y-96567676D02*
X93608333Y-96662914D01*
X93608333Y-96662914D02*
X93513095Y-96710533D01*
X93023809Y-111928628D02*
X93023809Y-112404819D01*
X92690476Y-111404819D02*
X93023809Y-111928628D01*
X93023809Y-111928628D02*
X93357142Y-111404819D01*
X94214285Y-112404819D02*
X93642857Y-112404819D01*
X93928571Y-112404819D02*
X93928571Y-111404819D01*
X93928571Y-111404819D02*
X93833333Y-111547676D01*
X93833333Y-111547676D02*
X93738095Y-111642914D01*
X93738095Y-111642914D02*
X93642857Y-111690533D01*
%TO.C,R1*%
D11*
X94997000Y-83666359D02*
X94997000Y-83973641D01*
X95757000Y-83666359D02*
X95757000Y-83973641D01*
%TO.C,R2*%
X92838000Y-83539359D02*
X92838000Y-83846641D01*
X93598000Y-83539359D02*
X93598000Y-83846641D01*
%TO.C,J1*%
X98700000Y-79400000D02*
X98700000Y-77400000D01*
X98700000Y-75500000D02*
X98700000Y-73600000D01*
X98700000Y-73600000D02*
X89300000Y-73600000D01*
X89300000Y-79400000D02*
X89300000Y-77400000D01*
X89300000Y-75500000D02*
X89300000Y-73600000D01*
%TO.C,C13*%
X89390580Y-84260000D02*
X89109420Y-84260000D01*
X89390580Y-83240000D02*
X89109420Y-83240000D01*
%TO.C,U2*%
X91695000Y-87237500D02*
X92025000Y-86997500D01*
X92025000Y-87477500D01*
X91695000Y-87237500D01*
G36*
X92025000Y-87477500D02*
G01*
X91695000Y-87237500D01*
X92025000Y-86997500D01*
X92025000Y-87477500D01*
G37*
X93635000Y-86697500D02*
X93585000Y-86697500D01*
X93635000Y-85177500D02*
X93635000Y-86697500D01*
X92635000Y-85177500D02*
X93635000Y-85177500D01*
X92465000Y-86697500D02*
X91685000Y-86697500D01*
X90565000Y-86697500D02*
X90515000Y-86697500D01*
X90515000Y-86697500D02*
X90515000Y-85177500D01*
X90515000Y-85177500D02*
X91515000Y-85177500D01*
%TO.C,C14*%
X92209580Y-89260000D02*
X91928420Y-89260000D01*
X92209580Y-88240000D02*
X91928420Y-88240000D01*
%TO.C,SW1*%
X90216000Y-90462000D02*
X89916000Y-90462000D01*
X90216000Y-86322000D02*
X90216000Y-90462000D01*
X89916000Y-86322000D02*
X90216000Y-86322000D01*
X87376000Y-90462000D02*
X87076000Y-90462000D01*
X87076000Y-90462000D02*
X87076000Y-86322000D01*
X87076000Y-86322000D02*
X87376000Y-86322000D01*
%TO.C,R7*%
X89407000Y-91921359D02*
X89407000Y-92228641D01*
X88647000Y-91921359D02*
X88647000Y-92228641D01*
%TO.C,R6*%
X88391000Y-93445359D02*
X88391000Y-93752641D01*
X87631000Y-93445359D02*
X87631000Y-93752641D01*
%TO.C,U3*%
X89320000Y-93960000D02*
X89180000Y-93770000D01*
X89460000Y-93770000D01*
X89320000Y-93960000D01*
G36*
X89320000Y-93960000D02*
G01*
X89180000Y-93770000D01*
X89460000Y-93770000D01*
X89320000Y-93960000D01*
G37*
X92410000Y-96235000D02*
X89190000Y-96235000D01*
X89614432Y-93965000D02*
X92410000Y-93965000D01*
%TO.C,C17*%
X93120800Y-92995636D02*
X93120800Y-92779964D01*
X92400800Y-92995636D02*
X92400800Y-92779964D01*
%TO.C,C10*%
X94213000Y-94357836D02*
X94213000Y-94142164D01*
X93493000Y-94357836D02*
X93493000Y-94142164D01*
%TO.C,C2*%
X95254400Y-94138636D02*
X95254400Y-93922964D01*
X94534400Y-94138636D02*
X94534400Y-93922964D01*
%TO.C,C1*%
X96219600Y-93357836D02*
X96219600Y-93142164D01*
X95499600Y-93357836D02*
X95499600Y-93142164D01*
%TO.C,R4*%
X95122000Y-96315559D02*
X95122000Y-96622841D01*
X94362000Y-96315559D02*
X94362000Y-96622841D01*
%TO.C,R3*%
X96163400Y-96315559D02*
X96163400Y-96622841D01*
X95403400Y-96315559D02*
X95403400Y-96622841D01*
%TO.C,C12*%
X97134000Y-96500836D02*
X97134000Y-96285164D01*
X96414000Y-96500836D02*
X96414000Y-96285164D01*
%TO.C,C3*%
X98571164Y-96880000D02*
X98786836Y-96880000D01*
X98571164Y-96160000D02*
X98786836Y-96160000D01*
%TO.C,C5*%
X98492164Y-97860000D02*
X98707836Y-97860000D01*
X98492164Y-97140000D02*
X98707836Y-97140000D01*
%TO.C,C6*%
X99079164Y-98785000D02*
X99294836Y-98785000D01*
X99079164Y-98065000D02*
X99294836Y-98065000D01*
%TO.C,U1*%
X89922500Y-99200000D02*
X89592500Y-99440000D01*
X89592500Y-98960000D01*
X89922500Y-99200000D01*
G36*
X89922500Y-99200000D02*
G01*
X89592500Y-99440000D01*
X89592500Y-98960000D01*
X89922500Y-99200000D01*
G37*
X97672500Y-105410000D02*
X97022500Y-105410000D01*
X97672500Y-104760000D02*
X97672500Y-105410000D01*
X97672500Y-98190000D02*
X97672500Y-98840000D01*
X97022500Y-98190000D02*
X97672500Y-98190000D01*
X91102500Y-105410000D02*
X90452500Y-105410000D01*
X90452500Y-105410000D02*
X90452500Y-104760000D01*
X90452500Y-98840000D02*
X90452500Y-98190000D01*
X90452500Y-98190000D02*
X91102500Y-98190000D01*
%TO.C,C4*%
X96542164Y-108385000D02*
X96757836Y-108385000D01*
X96542164Y-107665000D02*
X96757836Y-107665000D01*
%TO.C,C11*%
X96617164Y-107435000D02*
X96832836Y-107435000D01*
X96617164Y-106715000D02*
X96832836Y-106715000D01*
%TO.C,C7*%
X100111611Y-102959313D02*
X100298389Y-103067149D01*
X99751611Y-103582851D02*
X99938389Y-103690687D01*
%TO.C,R5*%
X94128641Y-107605000D02*
X93821359Y-107605000D01*
X94128641Y-106845000D02*
X93821359Y-106845000D01*
%TO.C,C16*%
X96860000Y-109607836D02*
X96860000Y-109392164D01*
X96140000Y-109607836D02*
X96140000Y-109392164D01*
%TO.C,C15*%
X90860000Y-109392164D02*
X90860000Y-109607836D01*
X90140000Y-109392164D02*
X90140000Y-109607836D01*
%TO.C,J4*%
X90080000Y-125770000D02*
X90080000Y-124390000D01*
X91460000Y-125770000D02*
X90080000Y-125770000D01*
X92730000Y-123010000D02*
X97920000Y-123010000D01*
X92730000Y-125770000D02*
X92730000Y-123010000D01*
X92730000Y-125770000D02*
X97920000Y-125770000D01*
X97920000Y-125770000D02*
X97920000Y-123010000D01*
%TO.C,C8*%
X88245836Y-102383000D02*
X88030164Y-102383000D01*
X88245836Y-103103000D02*
X88030164Y-103103000D01*
%TO.C,Y1*%
X95560000Y-107790000D02*
X91440000Y-107790000D01*
X95560000Y-111210000D02*
X95560000Y-107790000D01*
%TO.C,J3*%
X101510000Y-74990000D02*
X102890000Y-74990000D01*
X101510000Y-76370000D02*
X101510000Y-74990000D01*
X101510000Y-77640000D02*
X101510000Y-126010000D01*
X101510000Y-77640000D02*
X104270000Y-77640000D01*
X101510000Y-126010000D02*
X104270000Y-126010000D01*
X104270000Y-77640000D02*
X104270000Y-126010000D01*
%TO.C,C9*%
X88857836Y-98890000D02*
X88642164Y-98890000D01*
X88857836Y-99610000D02*
X88642164Y-99610000D01*
%TO.C,J2*%
X83730000Y-74990000D02*
X85110000Y-74990000D01*
X83730000Y-76370000D02*
X83730000Y-74990000D01*
X83730000Y-77640000D02*
X83730000Y-126010000D01*
X83730000Y-77640000D02*
X86490000Y-77640000D01*
X83730000Y-126010000D02*
X86490000Y-126010000D01*
X86490000Y-77640000D02*
X86490000Y-126010000D01*
%TD*%
M02*
