%TF.GenerationSoftware,KiCad,Pcbnew,10.0.6*%
%TF.CreationDate,2026-10-06T17:03:18+03:00*%
%TF.ProjectId,devboard,64657662-6f61-4726-942e-6b696361645f,rev?*%
%TF.SameCoordinates,Original*%
%TF.FileFunction,Copper,L1,Top*%
%TF.FilePolarity,Positive*%
%FSLAX46Y46*%
G04 Gerber Fmt 4.6, Leading zero omitted, Abs format (unit mm)*
G04 Created by KiCad (PCBNEW 10.0.6) date 2026-10-06 17:03:18*
%MOMM*%
%LPD*%
G01*
G04 APERTURE LIST*
G04 Aperture macros list*
%AMRoundRect*
0 Rectangle with rounded corners*
0 $1 Rounding radius*
0 $2 $3 $4 $5 $6 $7 $8 $9 X,Y pos of 4 corners*
0 Add a 4 corners polygon primitive as box body*
4,1,4,$2,$3,$4,$5,$6,$7,$8,$9,$2,$3,0*
0 Add four circle primitives for the rounded corners*
1,1,$1+$1,$2,$3*
1,1,$1+$1,$4,$5*
1,1,$1+$1,$6,$7*
1,1,$1+$1,$8,$9*
0 Add four rect primitives between the rounded corners*
20,1,$1+$1,$2,$3,$4,$5,0*
20,1,$1+$1,$4,$5,$6,$7,0*
20,1,$1+$1,$6,$7,$8,$9,0*
20,1,$1+$1,$8,$9,$2,$3,0*%
G04 Aperture macros list end*
%TA.AperFunction,SMDPad,CuDef*%
%ADD10RoundRect,0.135000X-0.185000X0.135000X-0.185000X-0.135000X0.185000X-0.135000X0.185000X0.135000X0*%
%TD*%
%TA.AperFunction,ComponentPad*%
%ADD11O,1.000000X1.600000*%
%TD*%
%TA.AperFunction,ComponentPad*%
%ADD12O,1.000000X2.100000*%
%TD*%
%TA.AperFunction,SMDPad,CuDef*%
%ADD13RoundRect,0.150000X0.150000X0.575000X-0.150000X0.575000X-0.150000X-0.575000X0.150000X-0.575000X0*%
%TD*%
%TA.AperFunction,SMDPad,CuDef*%
%ADD14RoundRect,0.075000X0.075000X0.650000X-0.075000X0.650000X-0.075000X-0.650000X0.075000X-0.650000X0*%
%TD*%
%TA.AperFunction,SMDPad,CuDef*%
%ADD15RoundRect,0.225000X0.225000X0.250000X-0.225000X0.250000X-0.225000X-0.250000X0.225000X-0.250000X0*%
%TD*%
%TA.AperFunction,SMDPad,CuDef*%
%ADD16RoundRect,0.150000X0.150000X-0.587500X0.150000X0.587500X-0.150000X0.587500X-0.150000X-0.587500X0*%
%TD*%
%TA.AperFunction,SMDPad,CuDef*%
%ADD17RoundRect,0.200000X-0.800000X0.200000X-0.800000X-0.200000X0.800000X-0.200000X0.800000X0.200000X0*%
%TD*%
%TA.AperFunction,HeatsinkPad*%
%ADD18R,0.200000X1.600000*%
%TD*%
%TA.AperFunction,SMDPad,CuDef*%
%ADD19RoundRect,0.062500X-0.387500X-0.062500X0.387500X-0.062500X0.387500X0.062500X-0.387500X0.062500X0*%
%TD*%
%TA.AperFunction,SMDPad,CuDef*%
%ADD20RoundRect,0.140000X0.170000X-0.140000X0.170000X0.140000X-0.170000X0.140000X-0.170000X-0.140000X0*%
%TD*%
%TA.AperFunction,SMDPad,CuDef*%
%ADD21RoundRect,0.140000X-0.140000X-0.170000X0.140000X-0.170000X0.140000X0.170000X-0.140000X0.170000X0*%
%TD*%
%TA.AperFunction,HeatsinkPad*%
%ADD22R,3.200000X3.200000*%
%TD*%
%TA.AperFunction,SMDPad,CuDef*%
%ADD23RoundRect,0.050000X-0.050000X-0.387500X0.050000X-0.387500X0.050000X0.387500X-0.050000X0.387500X0*%
%TD*%
%TA.AperFunction,SMDPad,CuDef*%
%ADD24RoundRect,0.050000X-0.387500X-0.050000X0.387500X-0.050000X0.387500X0.050000X-0.387500X0.050000X0*%
%TD*%
%TA.AperFunction,SMDPad,CuDef*%
%ADD25RoundRect,0.140000X-0.206244X-0.077224X0.036244X-0.217224X0.206244X0.077224X-0.036244X0.217224X0*%
%TD*%
%TA.AperFunction,SMDPad,CuDef*%
%ADD26RoundRect,0.135000X0.135000X0.185000X-0.135000X0.185000X-0.135000X-0.185000X0.135000X-0.185000X0*%
%TD*%
%TA.AperFunction,SMDPad,CuDef*%
%ADD27RoundRect,0.140000X-0.170000X0.140000X-0.170000X-0.140000X0.170000X-0.140000X0.170000X0.140000X0*%
%TD*%
%TA.AperFunction,ComponentPad*%
%ADD28R,1.700000X1.700000*%
%TD*%
%TA.AperFunction,ComponentPad*%
%ADD29C,1.700000*%
%TD*%
%TA.AperFunction,SMDPad,CuDef*%
%ADD30RoundRect,0.140000X0.140000X0.170000X-0.140000X0.170000X-0.140000X-0.170000X0.140000X-0.170000X0*%
%TD*%
%TA.AperFunction,SMDPad,CuDef*%
%ADD31RoundRect,0.250000X0.450000X0.350000X-0.450000X0.350000X-0.450000X-0.350000X0.450000X-0.350000X0*%
%TD*%
%TA.AperFunction,ViaPad*%
%ADD32C,0.600000*%
%TD*%
%TA.AperFunction,Conductor*%
%ADD33C,0.200000*%
%TD*%
G04 APERTURE END LIST*
D10*
%TO.P,R1,1*%
%TO.N,Net-(J1-CC1)*%
X95377000Y-83310000D03*
%TO.P,R1,2*%
%TO.N,GND*%
X95377000Y-84330000D03*
%TD*%
%TO.P,R2,1*%
%TO.N,Net-(J1-CC2)*%
X93218000Y-83183000D03*
%TO.P,R2,2*%
%TO.N,GND*%
X93218000Y-84203000D03*
%TD*%
D11*
%TO.P,J1,SH,SHIELD_SH*%
%TO.N,GND*%
X89680000Y-76450000D03*
D12*
X89680000Y-80630000D03*
D11*
X98320000Y-76450000D03*
D12*
X98320000Y-80630000D03*
D13*
%TO.P,J1,B12,GND_B12*%
X97250000Y-81545000D03*
%TO.P,J1,B9,VBUS_B9*%
%TO.N,VBUS*%
X96450000Y-81545000D03*
D14*
%TO.P,J1,B8*%
%TO.N,N/C*%
X95750000Y-81545000D03*
%TO.P,J1,B7,D-_B7*%
%TO.N,USB_D-*%
X94750000Y-81545000D03*
%TO.P,J1,B6,D+_B6*%
%TO.N,USB_D+*%
X93250000Y-81545000D03*
%TO.P,J1,B5,CC2_B5*%
%TO.N,Net-(J1-CC2)*%
X92250000Y-81545000D03*
D13*
%TO.P,J1,B4,VBUS_B4*%
%TO.N,VBUS*%
X91550000Y-81545000D03*
%TO.P,J1,B1,GND_B1*%
%TO.N,GND*%
X90750000Y-81545000D03*
%TO.P,J1,A12,GND_A12*%
X90750000Y-81545000D03*
%TO.P,J1,A9,VBUS_A9*%
%TO.N,VBUS*%
X91550000Y-81545000D03*
D14*
%TO.P,J1,A8*%
%TO.N,N/C*%
X92750000Y-81545000D03*
%TO.P,J1,A7,D-_A7*%
%TO.N,USB_D-*%
X93750000Y-81545000D03*
%TO.P,J1,A6,D+_A6*%
%TO.N,USB_D+*%
X94250000Y-81545000D03*
%TO.P,J1,A5,CC1_A5*%
%TO.N,Net-(J1-CC1)*%
X95250000Y-81545000D03*
D13*
%TO.P,J1,A4,VBUS_A4*%
%TO.N,VBUS*%
X96450000Y-81545000D03*
%TO.P,J1,A1,GND_A1*%
%TO.N,GND*%
X97250000Y-81545000D03*
%TD*%
D15*
%TO.P,C13,2*%
%TO.N,GND*%
X88475000Y-83750000D03*
%TO.P,C13,1*%
%TO.N,VBUS*%
X90025000Y-83750000D03*
%TD*%
D16*
%TO.P,U2,3,VI_3*%
%TO.N,VBUS*%
X92075000Y-85000000D03*
%TO.P,U2,2,VO_2*%
%TO.N,+3V3*%
X93025000Y-86875000D03*
%TO.P,U2,1,GND_1*%
%TO.N,GND*%
X91125000Y-86875000D03*
%TD*%
D15*
%TO.P,C14,2*%
%TO.N,GND*%
X91294000Y-88750000D03*
%TO.P,C14,1*%
%TO.N,+3V3*%
X92844000Y-88750000D03*
%TD*%
D17*
%TO.P,SW1,2,2_2*%
%TO.N,Net-(R7-Pad1)*%
X88646000Y-90492000D03*
%TO.P,SW1,1,1_1*%
%TO.N,GND*%
X88646000Y-86292000D03*
%TD*%
D10*
%TO.P,R7,2*%
%TO.N,QSPI_SS*%
X89027000Y-92585000D03*
%TO.P,R7,1*%
%TO.N,Net-(R7-Pad1)*%
X89027000Y-91565000D03*
%TD*%
%TO.P,R6,2*%
%TO.N,QSPI_SS*%
X88011000Y-94109000D03*
%TO.P,R6,1*%
%TO.N,+3V3*%
X88011000Y-93089000D03*
%TD*%
D18*
%TO.P,U3,9*%
%TO.N,N/C*%
X90800000Y-95100000D03*
D19*
%TO.P,U3,8,VCC_8*%
%TO.N,+3V3*%
X92225000Y-94350000D03*
%TO.P,U3,7,~{HOLD}/~{RESET}/IO_{3}_7*%
%TO.N,QSPI_SD3*%
X92225000Y-94850000D03*
%TO.P,U3,6,CLK_6*%
%TO.N,QSPI_SCLK*%
X92225000Y-95350000D03*
%TO.P,U3,5,DI/IO_{0}_5*%
%TO.N,QSPI_SD0*%
X92225000Y-95850000D03*
%TO.P,U3,4,GND_4*%
%TO.N,GND*%
X89375000Y-95850000D03*
%TO.P,U3,3,~{WP}/IO_{2}_3*%
%TO.N,QSPI_SD2*%
X89375000Y-95350000D03*
%TO.P,U3,2,DO/IO_{1}_2*%
%TO.N,QSPI_SD1*%
X89375000Y-94850000D03*
%TO.P,U3,1,~{CS}_1*%
%TO.N,QSPI_SS*%
X89375000Y-94350000D03*
%TD*%
D20*
%TO.P,C17,2*%
%TO.N,GND*%
X92760800Y-92407800D03*
%TO.P,C17,1*%
%TO.N,+3V3*%
X92760800Y-93367800D03*
%TD*%
%TO.P,C10,2*%
%TO.N,GND*%
X93853000Y-93770000D03*
%TO.P,C10,1*%
%TO.N,+1V1*%
X93853000Y-94730000D03*
%TD*%
%TO.P,C2,2*%
%TO.N,GND*%
X94894400Y-93550800D03*
%TO.P,C2,1*%
%TO.N,+3V3*%
X94894400Y-94510800D03*
%TD*%
%TO.P,C1,2*%
%TO.N,GND*%
X95859600Y-92770000D03*
%TO.P,C1,1*%
%TO.N,+3V3*%
X95859600Y-93730000D03*
%TD*%
D10*
%TO.P,R4,2*%
%TO.N,Net-(U1-USB_DP)*%
X94742000Y-96979200D03*
%TO.P,R4,1*%
%TO.N,USB_D+*%
X94742000Y-95959200D03*
%TD*%
%TO.P,R3,2*%
%TO.N,Net-(U1-USB_DM)*%
X95783400Y-96979200D03*
%TO.P,R3,1*%
%TO.N,USB_D-*%
X95783400Y-95959200D03*
%TD*%
D20*
%TO.P,C12,2*%
%TO.N,GND*%
X96774000Y-95913000D03*
%TO.P,C12,1*%
%TO.N,+1V1*%
X96774000Y-96873000D03*
%TD*%
D21*
%TO.P,C3,2*%
%TO.N,GND*%
X99159000Y-96520000D03*
%TO.P,C3,1*%
%TO.N,+3V3*%
X98199000Y-96520000D03*
%TD*%
%TO.P,C5,2*%
%TO.N,GND*%
X99080000Y-97500000D03*
%TO.P,C5,1*%
%TO.N,+3V3*%
X98120000Y-97500000D03*
%TD*%
%TO.P,C6,2*%
%TO.N,GND*%
X99667000Y-98425000D03*
%TO.P,C6,1*%
%TO.N,+3V3*%
X98707000Y-98425000D03*
%TD*%
D22*
%TO.P,U1,57,GND_57*%
%TO.N,GND*%
X94062500Y-101800000D03*
D23*
%TO.P,U1,56,~{QSPI_SS}_56*%
%TO.N,QSPI_SS*%
X91462500Y-98362500D03*
%TO.P,U1,55,QSPI_SD1_55*%
%TO.N,QSPI_SD1*%
X91862500Y-98362500D03*
%TO.P,U1,54,QSPI_SD2_54*%
%TO.N,QSPI_SD2*%
X92262500Y-98362500D03*
%TO.P,U1,53,QSPI_SD0_53*%
%TO.N,QSPI_SD0*%
X92662500Y-98362500D03*
%TO.P,U1,52,QSPI_SCLK_52*%
%TO.N,QSPI_SCLK*%
X93062500Y-98362500D03*
%TO.P,U1,51,QSPI_SD3_51*%
%TO.N,QSPI_SD3*%
X93462500Y-98362500D03*
%TO.P,U1,50,DVDD_50*%
%TO.N,+1V1*%
X93862500Y-98362500D03*
%TO.P,U1,49,IOVDD_49*%
%TO.N,+3V3*%
X94262500Y-98362500D03*
%TO.P,U1,48,USB_VDD_48*%
X94662500Y-98362500D03*
%TO.P,U1,47,USB_DP_47*%
%TO.N,Net-(U1-USB_DP)*%
X95062500Y-98362500D03*
%TO.P,U1,46,USB_DM_46*%
%TO.N,Net-(U1-USB_DM)*%
X95462500Y-98362500D03*
%TO.P,U1,45,VREG_VOUT_45*%
%TO.N,+1V1*%
X95862500Y-98362500D03*
%TO.P,U1,44,VREG_VIN_44*%
%TO.N,+3V3*%
X96262500Y-98362500D03*
%TO.P,U1,43,ADC_AVDD_43*%
X96662500Y-98362500D03*
D24*
%TO.P,U1,42,IOVDD_42*%
X97500000Y-99200000D03*
%TO.P,U1,41,GPIO29/ADC3_41*%
%TO.N,GPIO29{slash}ADC3*%
X97500000Y-99600000D03*
%TO.P,U1,40,GPIO28/ADC2_40*%
%TO.N,GPIO28{slash}ADC2*%
X97500000Y-100000000D03*
%TO.P,U1,39,GPIO27/ADC1_39*%
%TO.N,GPIO27{slash}ADC1*%
X97500000Y-100400000D03*
%TO.P,U1,38,GPIO26/ADC0_38*%
%TO.N,GPIO26{slash}ADC0*%
X97500000Y-100800000D03*
%TO.P,U1,37,GPIO25_37*%
%TO.N,unconnected-(U1-GPIO25-Pad37)*%
X97500000Y-101200000D03*
%TO.P,U1,36,GPIO24_36*%
%TO.N,GPIO24*%
X97500000Y-101600000D03*
%TO.P,U1,35,GPIO23_35*%
%TO.N,GPIO23*%
X97500000Y-102000000D03*
%TO.P,U1,34,GPIO22_34*%
%TO.N,GPIO22*%
X97500000Y-102400000D03*
%TO.P,U1,33,IOVDD_33*%
%TO.N,+3V3*%
X97500000Y-102800000D03*
%TO.P,U1,32,GPIO21_32*%
%TO.N,GPIO21*%
X97500000Y-103200000D03*
%TO.P,U1,31,GPIO20_31*%
%TO.N,GPIO20*%
X97500000Y-103600000D03*
%TO.P,U1,30,GPIO19_30*%
%TO.N,GPIO19*%
X97500000Y-104000000D03*
%TO.P,U1,29,GPIO18_29*%
%TO.N,GPIO18*%
X97500000Y-104400000D03*
D23*
%TO.P,U1,28,GPIO17_28*%
%TO.N,GPIO17*%
X96662500Y-105237500D03*
%TO.P,U1,27,GPIO16_27*%
%TO.N,GPIO16*%
X96262500Y-105237500D03*
%TO.P,U1,26,RUN_26*%
%TO.N,RUN*%
X95862500Y-105237500D03*
%TO.P,U1,25,SWDIO_25*%
%TO.N,SWDIO*%
X95462500Y-105237500D03*
%TO.P,U1,24,SWCLK_24*%
%TO.N,SWCLK*%
X95062500Y-105237500D03*
%TO.P,U1,23,DVDD_23*%
%TO.N,+1V1*%
X94662500Y-105237500D03*
%TO.P,U1,22,IOVDD_22*%
%TO.N,+3V3*%
X94262500Y-105237500D03*
%TO.P,U1,21,XOUT_21*%
%TO.N,XOUT*%
X93862500Y-105237500D03*
%TO.P,U1,20,XIN_20*%
%TO.N,XIN*%
X93462500Y-105237500D03*
%TO.P,U1,19,TESTEN_19*%
%TO.N,GND*%
X93062500Y-105237500D03*
%TO.P,U1,18,GPIO15_18*%
%TO.N,GPIO15*%
X92662500Y-105237500D03*
%TO.P,U1,17,GPIO14_17*%
%TO.N,GPIO14*%
X92262500Y-105237500D03*
%TO.P,U1,16,GPIO13_16*%
%TO.N,GPIO13*%
X91862500Y-105237500D03*
%TO.P,U1,15,GPIO12_15*%
%TO.N,GPIO12*%
X91462500Y-105237500D03*
D24*
%TO.P,U1,14,GPIO11_14*%
%TO.N,GPIO11*%
X90625000Y-104400000D03*
%TO.P,U1,13,GPIO10_13*%
%TO.N,GPIO10*%
X90625000Y-104000000D03*
%TO.P,U1,12,GPIO9_12*%
%TO.N,GPIO9*%
X90625000Y-103600000D03*
%TO.P,U1,11,GPIO8_11*%
%TO.N,GPIO8*%
X90625000Y-103200000D03*
%TO.P,U1,10,IOVDD_10*%
%TO.N,+3V3*%
X90625000Y-102800000D03*
%TO.P,U1,9,GPIO7_9*%
%TO.N,GPIO7*%
X90625000Y-102400000D03*
%TO.P,U1,8,GPIO6_8*%
%TO.N,GPIO6*%
X90625000Y-102000000D03*
%TO.P,U1,7,GPIO5_7*%
%TO.N,GPIO5*%
X90625000Y-101600000D03*
%TO.P,U1,6,GPIO4_6*%
%TO.N,GPIO4*%
X90625000Y-101200000D03*
%TO.P,U1,5,GPIO3_5*%
%TO.N,GPIO3*%
X90625000Y-100800000D03*
%TO.P,U1,4,GPIO2_4*%
%TO.N,GPIO2*%
X90625000Y-100400000D03*
%TO.P,U1,3,GPIO1_3*%
%TO.N,GPIO1*%
X90625000Y-100000000D03*
%TO.P,U1,2,GPIO0_2*%
%TO.N,GPIO0*%
X90625000Y-99600000D03*
%TO.P,U1,1,IOVDD_1*%
%TO.N,+3V3*%
X90625000Y-99200000D03*
%TD*%
D21*
%TO.P,C4,2*%
%TO.N,GND*%
X97130000Y-108025000D03*
%TO.P,C4,1*%
%TO.N,+3V3*%
X96170000Y-108025000D03*
%TD*%
%TO.P,C11,2*%
%TO.N,GND*%
X97205000Y-107075000D03*
%TO.P,C11,1*%
%TO.N,+1V1*%
X96245000Y-107075000D03*
%TD*%
D25*
%TO.P,C7,2*%
%TO.N,GND*%
X100440692Y-103565000D03*
%TO.P,C7,1*%
%TO.N,+3V3*%
X99609308Y-103085000D03*
%TD*%
D26*
%TO.P,R5,2*%
%TO.N,XOUT*%
X93465000Y-107225000D03*
%TO.P,R5,1*%
%TO.N,Net-(C16-Pad2)*%
X94485000Y-107225000D03*
%TD*%
D20*
%TO.P,C16,2*%
%TO.N,Net-(C16-Pad2)*%
X96500000Y-109020000D03*
%TO.P,C16,1*%
%TO.N,GND*%
X96500000Y-109980000D03*
%TD*%
D27*
%TO.P,C15,2*%
%TO.N,XIN*%
X90500000Y-109980000D03*
%TO.P,C15,1*%
%TO.N,GND*%
X90500000Y-109020000D03*
%TD*%
D28*
%TO.P,J4,1,Pin_1_1*%
%TO.N,SWCLK*%
X91460000Y-124390000D03*
D29*
%TO.P,J4,2,Pin_2_2*%
%TO.N,GND*%
X94000000Y-124390000D03*
%TO.P,J4,3,Pin_3_3*%
%TO.N,SWDIO*%
X96540000Y-124390000D03*
%TD*%
D30*
%TO.P,C8,1*%
%TO.N,+3V3*%
X88618000Y-102743000D03*
%TO.P,C8,2*%
%TO.N,GND*%
X87658000Y-102743000D03*
%TD*%
D31*
%TO.P,Y1,1,1_1*%
%TO.N,Net-(C16-Pad2)*%
X94600000Y-108650000D03*
%TO.P,Y1,2,G_2*%
%TO.N,GND*%
X92400000Y-108650000D03*
%TO.P,Y1,3,3_3*%
%TO.N,XIN*%
X92400000Y-110350000D03*
%TO.P,Y1,4,G_4*%
%TO.N,GND*%
X94600000Y-110350000D03*
%TD*%
D28*
%TO.P,J3,1,Pin_1_1*%
%TO.N,VBUS*%
X102890000Y-76370000D03*
D29*
%TO.P,J3,2,Pin_2_2*%
%TO.N,GPIO29{slash}ADC3*%
X102890000Y-78910000D03*
%TO.P,J3,3,Pin_3_3*%
%TO.N,GND*%
X102890000Y-81450000D03*
%TO.P,J3,4,Pin_4_4*%
%TO.N,GPIO28{slash}ADC2*%
X102890000Y-83990000D03*
%TO.P,J3,5,Pin_5_5*%
%TO.N,+3V3*%
X102890000Y-86530000D03*
%TO.P,J3,6,Pin_6_6*%
%TO.N,GPIO27{slash}ADC1*%
X102890000Y-89070000D03*
%TO.P,J3,7,Pin_7_7*%
%TO.N,GPIO26{slash}ADC0*%
X102890000Y-91610000D03*
%TO.P,J3,8,Pin_8_8*%
%TO.N,GND*%
X102890000Y-94150000D03*
%TO.P,J3,9,Pin_9_9*%
%TO.N,GPIO24*%
X102890000Y-96690000D03*
%TO.P,J3,10,Pin_10_10*%
%TO.N,GPIO23*%
X102890000Y-99230000D03*
%TO.P,J3,11,Pin_11_11*%
%TO.N,RUN*%
X102890000Y-101770000D03*
%TO.P,J3,12,Pin_12_12*%
%TO.N,GPIO22*%
X102890000Y-104310000D03*
%TO.P,J3,13,Pin_13_13*%
%TO.N,GND*%
X102890000Y-106850000D03*
%TO.P,J3,14,Pin_14_14*%
%TO.N,GPIO21*%
X102890000Y-109390000D03*
%TO.P,J3,15,Pin_15_15*%
%TO.N,GPIO20*%
X102890000Y-111930000D03*
%TO.P,J3,16,Pin_16_16*%
%TO.N,GPIO19*%
X102890000Y-114470000D03*
%TO.P,J3,17,Pin_17_17*%
%TO.N,GPIO18*%
X102890000Y-117010000D03*
%TO.P,J3,18,Pin_18_18*%
%TO.N,GND*%
X102890000Y-119550000D03*
%TO.P,J3,19,Pin_19_19*%
%TO.N,GPIO17*%
X102890000Y-122090000D03*
%TO.P,J3,20,Pin_20_20*%
%TO.N,GPIO16*%
X102890000Y-124630000D03*
%TD*%
D30*
%TO.P,C9,1*%
%TO.N,+3V3*%
X89230000Y-99250000D03*
%TO.P,C9,2*%
%TO.N,GND*%
X88270000Y-99250000D03*
%TD*%
D28*
%TO.P,J2,1,Pin_1_1*%
%TO.N,GPIO0*%
X85110000Y-76370000D03*
D29*
%TO.P,J2,2,Pin_2_2*%
%TO.N,GPIO1*%
X85110000Y-78910000D03*
%TO.P,J2,3,Pin_3_3*%
%TO.N,GND*%
X85110000Y-81450000D03*
%TO.P,J2,4,Pin_4_4*%
%TO.N,GPIO2*%
X85110000Y-83990000D03*
%TO.P,J2,5,Pin_5_5*%
%TO.N,GPIO3*%
X85110000Y-86530000D03*
%TO.P,J2,6,Pin_6_6*%
%TO.N,GPIO4*%
X85110000Y-89070000D03*
%TO.P,J2,7,Pin_7_7*%
%TO.N,GPIO5*%
X85110000Y-91610000D03*
%TO.P,J2,8,Pin_8_8*%
%TO.N,GND*%
X85110000Y-94150000D03*
%TO.P,J2,9,Pin_9_9*%
%TO.N,GPIO6*%
X85110000Y-96690000D03*
%TO.P,J2,10,Pin_10_10*%
%TO.N,GPIO7*%
X85110000Y-99230000D03*
%TO.P,J2,11,Pin_11_11*%
%TO.N,GPIO8*%
X85110000Y-101770000D03*
%TO.P,J2,12,Pin_12_12*%
%TO.N,GPIO9*%
X85110000Y-104310000D03*
%TO.P,J2,13,Pin_13_13*%
%TO.N,GND*%
X85110000Y-106850000D03*
%TO.P,J2,14,Pin_14_14*%
%TO.N,GPIO10*%
X85110000Y-109390000D03*
%TO.P,J2,15,Pin_15_15*%
%TO.N,GPIO11*%
X85110000Y-111930000D03*
%TO.P,J2,16,Pin_16_16*%
%TO.N,GPIO12*%
X85110000Y-114470000D03*
%TO.P,J2,17,Pin_17_17*%
%TO.N,GPIO13*%
X85110000Y-117010000D03*
%TO.P,J2,18,Pin_18_18*%
%TO.N,GND*%
X85110000Y-119550000D03*
%TO.P,J2,19,Pin_19_19*%
%TO.N,GPIO14*%
X85110000Y-122090000D03*
%TO.P,J2,20,Pin_20_20*%
%TO.N,GPIO15*%
X85110000Y-124630000D03*
%TD*%
D32*
%TO.N,GND*%
X88300000Y-95850000D03*
%TO.N,SWDIO*%
X96324358Y-106174952D03*
%TO.N,RUN*%
X96580367Y-103409072D03*
%TO.N,GND*%
X91562500Y-103948528D03*
X92050000Y-87275000D03*
X86675000Y-91950000D03*
%TO.N,+3V3*%
X94462499Y-97742562D03*
X96562500Y-101583574D03*
X93349912Y-103900002D03*
X94735835Y-95116835D03*
X94107000Y-88392000D03*
%TO.N,GND*%
X94150000Y-92400000D03*
X87875000Y-98200000D03*
X86850000Y-102525000D03*
X87125000Y-82475000D03*
X93525000Y-85125000D03*
X99100000Y-90000000D03*
X93450000Y-100825000D03*
X95300000Y-102200000D03*
X87175000Y-105475000D03*
X87150000Y-84350000D03*
X93250000Y-102475000D03*
X94500000Y-112550000D03*
X94900000Y-92600000D03*
X87600000Y-78700000D03*
X90600000Y-113450000D03*
X101075000Y-104350000D03*
X91425000Y-92400000D03*
X93725000Y-78225000D03*
X95225000Y-101250000D03*
X98000000Y-112625000D03*
X91201473Y-97025000D03*
X97250000Y-83225000D03*
X90350000Y-111050000D03*
X99250000Y-94975000D03*
%TO.N,GPIO0*%
X95475000Y-99700000D03*
%TO.N,GPIO1*%
X91962498Y-100250000D03*
%TO.N,GPIO4*%
X88900000Y-100584000D03*
%TO.N,GPIO2*%
X91567000Y-101346000D03*
%TO.N,GPIO3*%
X89643195Y-100286475D03*
%TO.N,GPIO16*%
X96563448Y-104301950D03*
%TO.N,GPIO27{slash}ADC1*%
X96520000Y-100457000D03*
%TO.N,SWCLK*%
X95028705Y-103899999D03*
%TO.N,+1V1*%
X93175000Y-94313576D03*
X97896225Y-95729959D03*
X94223057Y-103905610D03*
%TD*%
%TO.N,QSPI_SS*%
D33*
X88650000Y-94350000D02*
X88475000Y-94350000D01*
X89027000Y-93973000D02*
X89027000Y-92585000D01*
X88650000Y-94350000D02*
X89027000Y-93973000D01*
X89375000Y-94350000D02*
X88650000Y-94350000D01*
X88475000Y-94350000D02*
X88385786Y-94350000D01*
X89396814Y-98362500D02*
X91462500Y-98362500D01*
X88385786Y-94350000D02*
X87300000Y-95435786D01*
X87300000Y-95435786D02*
X87300000Y-96265686D01*
X87300000Y-96265686D02*
X89396814Y-98362500D01*
X88475000Y-94350000D02*
X88252000Y-94350000D01*
X88252000Y-94350000D02*
X88011000Y-94109000D01*
%TO.N,GPIO5*%
X90625000Y-101600000D02*
X89542504Y-101600000D01*
X89542504Y-101600000D02*
X89250504Y-101308000D01*
X89250504Y-101308000D02*
X88665686Y-101308000D01*
X88665686Y-101308000D02*
X87141000Y-99783314D01*
X87141000Y-99783314D02*
X87141000Y-98155314D01*
X87141000Y-98155314D02*
X86425000Y-97439314D01*
X86425000Y-97439314D02*
X86425000Y-92925000D01*
X86425000Y-92925000D02*
X85110000Y-91610000D01*
%TO.N,QSPI_SD1*%
X89375000Y-94850000D02*
X88451471Y-94850000D01*
X88451471Y-94850000D02*
X87700000Y-95601471D01*
X87700000Y-95601471D02*
X87700000Y-96100000D01*
X87700000Y-96100000D02*
X89225000Y-97625000D01*
X91862500Y-97828640D02*
X91862500Y-98362500D01*
X89225000Y-97625000D02*
X91658860Y-97625000D01*
X91658860Y-97625000D02*
X91862500Y-97828640D01*
%TO.N,GND*%
X89375000Y-95850000D02*
X88300000Y-95850000D01*
%TO.N,SWDIO*%
X95462500Y-105862500D02*
X95773314Y-106173314D01*
X95462500Y-105237500D02*
X95462500Y-105862500D01*
X96322720Y-106173314D02*
X96324358Y-106174952D01*
X95773314Y-106173314D02*
X96322720Y-106173314D01*
%TO.N,+1V1*%
X95750000Y-106573314D02*
X95455000Y-106573314D01*
X95750000Y-106573314D02*
X95750000Y-106580000D01*
X95750000Y-106580000D02*
X96245000Y-107075000D01*
%TO.N,+3V3*%
X95417000Y-107442000D02*
X95587000Y-107442000D01*
X95587000Y-107442000D02*
X96170000Y-108025000D01*
%TO.N,+1V1*%
X95455000Y-106573314D02*
X94662500Y-105780814D01*
X94662500Y-105780814D02*
X94662500Y-105237500D01*
%TO.N,+3V3*%
X94262500Y-105237500D02*
X94262500Y-105946500D01*
X94262500Y-105946500D02*
X95055000Y-106739000D01*
X95055000Y-106739000D02*
X95055000Y-107080000D01*
X95055000Y-107080000D02*
X95417000Y-107442000D01*
%TO.N,RUN*%
X95862500Y-104126939D02*
X96580367Y-103409072D01*
X95862500Y-105237500D02*
X95862500Y-104126939D01*
%TO.N,GPIO16*%
X96563448Y-104301950D02*
X96562999Y-104301501D01*
X96562999Y-104301501D02*
X96545405Y-104301501D01*
X96545405Y-104301501D02*
X96262500Y-104584406D01*
X96262500Y-104584406D02*
X96262500Y-105237500D01*
%TO.N,+3V3*%
X96562500Y-102396360D02*
X96966140Y-102800000D01*
X96562500Y-101583574D02*
X96562500Y-102396360D01*
X96966140Y-102800000D02*
X97500000Y-102800000D01*
%TO.N,VBUS*%
X96450000Y-81545000D02*
X96215000Y-81310000D01*
X101710000Y-77550000D02*
X102890000Y-76370000D01*
X96215000Y-81310000D02*
X96215000Y-79820406D01*
X96215000Y-79820406D02*
X98485406Y-77550000D01*
X98485406Y-77550000D02*
X101710000Y-77550000D01*
%TO.N,GND*%
X97912000Y-94775000D02*
X98425000Y-94775000D01*
X96774000Y-95913000D02*
X97912000Y-94775000D01*
%TO.N,+1V1*%
X97896225Y-95729959D02*
X97900000Y-95733734D01*
X97900000Y-95733734D02*
X97900000Y-95747000D01*
X97900000Y-95747000D02*
X96774000Y-96873000D01*
%TO.N,GND*%
X91562500Y-103948528D02*
X91562500Y-103987500D01*
X91562500Y-103987500D02*
X91875002Y-104300002D01*
X91875002Y-104300002D02*
X92658862Y-104300002D01*
X92658862Y-104300002D02*
X93062500Y-104703640D01*
X93062500Y-104703640D02*
X93062500Y-105237500D01*
%TO.N,+3V3*%
X93349912Y-103900002D02*
X92362502Y-103900002D01*
X92362502Y-103900002D02*
X91262500Y-102800000D01*
X91262500Y-102800000D02*
X90625000Y-102800000D01*
%TO.N,GPIO1*%
X91712498Y-100000000D02*
X90625000Y-100000000D01*
X91962498Y-100250000D02*
X91712498Y-100000000D01*
%TO.N,GND*%
X92657090Y-103205410D02*
X94062500Y-101800000D01*
%TO.N,+3V3*%
X87346000Y-90079352D02*
X87900352Y-89525000D01*
X93019000Y-88575000D02*
X92844000Y-88750000D01*
X88675000Y-102800000D02*
X90625000Y-102800000D01*
X87346000Y-92424000D02*
X87346000Y-90079352D01*
X96058860Y-99100000D02*
X94866140Y-99100000D01*
X93349912Y-103900002D02*
X93924910Y-104475000D01*
X93924910Y-104475000D02*
X94033860Y-104475000D01*
X95859600Y-93730000D02*
X96469600Y-93120000D01*
X97932000Y-99200000D02*
X98707000Y-98425000D01*
X94462499Y-98162501D02*
X94262500Y-98362500D01*
X92844000Y-88750000D02*
X93370800Y-89276800D01*
X92760800Y-93367800D02*
X92760800Y-93814200D01*
X94462499Y-97748093D02*
X94462499Y-98162499D01*
X97257500Y-98362500D02*
X98120000Y-97500000D01*
X92760800Y-93814200D02*
X92225000Y-94350000D01*
X94462499Y-98162499D02*
X94662500Y-98362500D01*
X93370800Y-89128200D02*
X94107000Y-88392000D01*
X95859600Y-93952000D02*
X95859600Y-93993070D01*
X97257500Y-98957500D02*
X97257500Y-98362500D01*
X94894400Y-94510800D02*
X94894400Y-95021400D01*
X95325734Y-91300000D02*
X93370800Y-91300000D01*
X96662500Y-98362500D02*
X97257500Y-98362500D01*
X87900352Y-89525000D02*
X92069000Y-89525000D01*
X93019000Y-86875000D02*
X93019000Y-88575000D01*
X99324308Y-102800000D02*
X97500000Y-102800000D01*
X93370800Y-91300000D02*
X93370800Y-92757800D01*
X94262500Y-104703640D02*
X94262500Y-105237500D01*
X94462499Y-97742562D02*
X94462499Y-97748093D01*
X97500000Y-99200000D02*
X97257500Y-98957500D01*
X88011000Y-93089000D02*
X87346000Y-92424000D01*
X94462499Y-97748093D02*
X94462499Y-98162501D01*
X93370800Y-92757800D02*
X92760800Y-93367800D01*
X96262500Y-98896360D02*
X96058860Y-99100000D01*
X94033860Y-104475000D02*
X94262500Y-104703640D01*
X93370800Y-89276800D02*
X93370800Y-89535000D01*
X88618000Y-102743000D02*
X88675000Y-102800000D01*
X90625000Y-99200000D02*
X93958860Y-99200000D01*
X93370800Y-89535000D02*
X93370800Y-91300000D01*
X96469600Y-92443866D02*
X95325734Y-91300000D01*
X94767400Y-95148400D02*
X94735835Y-95116835D01*
X98105000Y-96520000D02*
X98199000Y-96520000D01*
X94894400Y-95021400D02*
X94767400Y-95148400D01*
X94262500Y-98896360D02*
X94262500Y-98362500D01*
X93958860Y-99200000D02*
X94262500Y-98896360D01*
X99609308Y-103085000D02*
X99324308Y-102800000D01*
X89280000Y-99200000D02*
X89230000Y-99250000D01*
X93370800Y-89535000D02*
X93370800Y-89128200D01*
X94866140Y-99100000D02*
X94662500Y-98896360D01*
X92069000Y-89525000D02*
X92844000Y-88750000D01*
X97500000Y-99200000D02*
X97932000Y-99200000D01*
X95859600Y-93993070D02*
X94735835Y-95116835D01*
X96262500Y-98362500D02*
X98105000Y-96520000D01*
X96469600Y-93120000D02*
X96469600Y-92443866D01*
X96262500Y-98362500D02*
X96262500Y-98896360D01*
X90091140Y-99200000D02*
X90625000Y-99200000D01*
X90625000Y-99200000D02*
X89280000Y-99200000D01*
X94662500Y-98896360D02*
X94662500Y-98362500D01*
%TO.N,GND*%
X89835000Y-80630000D02*
X90750000Y-81545000D01*
X89700000Y-110400000D02*
X90350000Y-111050000D01*
X99700000Y-95725000D02*
X99700000Y-97225000D01*
X89700000Y-109820000D02*
X89700000Y-110400000D01*
X89375000Y-95850000D02*
X90550000Y-97025000D01*
X92760800Y-91735800D02*
X92650000Y-91625000D01*
X96000000Y-85200000D02*
X96150000Y-85050000D01*
X91187500Y-86037500D02*
X91175000Y-86025000D01*
X94072200Y-93550800D02*
X93853000Y-93770000D01*
X87658000Y-102743000D02*
X87068000Y-102743000D01*
X100057000Y-98035000D02*
X100057000Y-96082000D01*
X95377000Y-85177000D02*
X95400000Y-85200000D01*
X90500000Y-109020000D02*
X89700000Y-109820000D01*
X92760800Y-92407800D02*
X92760800Y-91735800D01*
X95377000Y-84330000D02*
X95377000Y-85177000D01*
X94150000Y-93473000D02*
X94150000Y-92400000D01*
X99700000Y-97225000D02*
X99550000Y-97075000D01*
X87068000Y-102743000D02*
X86850000Y-102525000D01*
X99550000Y-97075000D02*
X99550000Y-95750000D01*
X94100000Y-110350000D02*
X94600000Y-110350000D01*
X97381000Y-107481000D02*
X97700000Y-107800000D01*
X99667000Y-98425000D02*
X100057000Y-98035000D01*
X92400000Y-108650000D02*
X94100000Y-110350000D01*
X100057000Y-96082000D02*
X99700000Y-95725000D01*
X94894400Y-93550800D02*
X94072200Y-93550800D01*
X93853000Y-93770000D02*
X94150000Y-93473000D01*
X92415552Y-86037500D02*
X91187500Y-86037500D01*
X93218000Y-84203000D02*
X93218000Y-85235052D01*
X89680000Y-80630000D02*
X89835000Y-80630000D01*
X90550000Y-97025000D02*
X91201473Y-97025000D01*
X93218000Y-85235052D02*
X92415552Y-86037500D01*
X95400000Y-85200000D02*
X96000000Y-85200000D01*
%TO.N,+1V1*%
X93862500Y-98362500D02*
X93862500Y-95060100D01*
X93862500Y-94977500D02*
X93853000Y-94968000D01*
X93862500Y-98362500D02*
X93862500Y-94977500D01*
X96141940Y-97549200D02*
X96152324Y-97549200D01*
X95862500Y-97828640D02*
X96141940Y-97549200D01*
X96774000Y-96927524D02*
X96774000Y-96873000D01*
X95862500Y-98362500D02*
X95862500Y-97828640D01*
X96152324Y-97549200D02*
X96774000Y-96927524D01*
X93862500Y-95060100D02*
X93954600Y-94968000D01*
%TO.N,VBUS*%
X94887410Y-79425000D02*
X92739594Y-79425000D01*
X91550000Y-81545000D02*
X91550000Y-82225000D01*
X91550000Y-84475000D02*
X91550000Y-81545000D01*
X92075000Y-85000000D02*
X91550000Y-84475000D01*
X92739594Y-79425000D02*
X91550000Y-80614594D01*
X96450000Y-80987590D02*
X94887410Y-79425000D01*
X91550000Y-80614594D02*
X91550000Y-81545000D01*
X96450000Y-81545000D02*
X96450000Y-80987590D01*
X91550000Y-82225000D02*
X90025000Y-83750000D01*
%TO.N,XIN*%
X92030000Y-109980000D02*
X92400000Y-110350000D01*
X93462500Y-105237500D02*
X93462500Y-106088576D01*
X91059000Y-109980000D02*
X92030000Y-109980000D01*
X90500000Y-109980000D02*
X91059000Y-109980000D01*
X91715256Y-107750000D02*
X91110000Y-108355256D01*
X91110000Y-109929000D02*
X91059000Y-109980000D01*
X91801076Y-107750000D02*
X91715256Y-107750000D01*
X91110000Y-108355256D02*
X91110000Y-109929000D01*
X93462500Y-106088576D02*
X91801076Y-107750000D01*
%TO.N,Net-(C16-Pad2)*%
X94970000Y-109020000D02*
X94600000Y-108650000D01*
X96500000Y-109020000D02*
X94970000Y-109020000D01*
X94510000Y-107000000D02*
X94510000Y-108560000D01*
X94510000Y-108560000D02*
X94600000Y-108650000D01*
%TO.N,USB_D-*%
X93750000Y-80787590D02*
X94017590Y-80520000D01*
X94750000Y-82120000D02*
X94750000Y-81545000D01*
X94755078Y-82918527D02*
X94755078Y-82888021D01*
X94725000Y-82145000D02*
X94750000Y-82120000D01*
X94755078Y-82796503D02*
X94755078Y-82758371D01*
X97552998Y-94103400D02*
X97234197Y-94103400D01*
X94755078Y-82880395D02*
X94755078Y-82804130D01*
X94482410Y-80520000D02*
X94750000Y-80787590D01*
X94755078Y-83185455D02*
X94755078Y-87553480D01*
X94755078Y-82804130D02*
X94755078Y-82796503D01*
X94755078Y-82266487D02*
X94725000Y-82236409D01*
X94725000Y-82236409D02*
X94725000Y-82145000D01*
X97353205Y-90151608D02*
X97617760Y-90416162D01*
X94755078Y-87553480D02*
X96769232Y-89567634D01*
X93750000Y-81545000D02*
X93750000Y-80787590D01*
X97617760Y-90416162D02*
X98700800Y-91499202D01*
X95783400Y-95554197D02*
X95783400Y-95959200D01*
X97234197Y-94103400D02*
X95926047Y-95411549D01*
X94755078Y-82758371D02*
X94755078Y-82266487D01*
X94755078Y-83032925D02*
X94755078Y-82918527D01*
X94755078Y-83063431D02*
X94755078Y-83185455D01*
X94750000Y-80787590D02*
X94750000Y-81545000D01*
X94755078Y-82888021D02*
X94755078Y-82880395D01*
X97088650Y-89567634D02*
X97353204Y-89832188D01*
X94755078Y-83063431D02*
X94755078Y-83032925D01*
X98700800Y-91499202D02*
X98700800Y-92955598D01*
X95926047Y-95411549D02*
X95783400Y-95554197D01*
X94017590Y-80520000D02*
X94482410Y-80520000D01*
X98700800Y-92955598D02*
X97552998Y-94103400D01*
X97353204Y-89991898D02*
G75*
G03*
X97353157Y-90151655I79896J-79902D01*
G01*
X96928942Y-89567635D02*
G75*
G02*
X97088653Y-89567630I79858J-79865D01*
G01*
X96769232Y-89567634D02*
G75*
G03*
X96928955Y-89567648I79868J79834D01*
G01*
X97353204Y-89832188D02*
G75*
G02*
X97353161Y-89991855I-79904J-79812D01*
G01*
%TO.N,USB_D+*%
X98250800Y-92769202D02*
X98250800Y-91685598D01*
X94305078Y-82438693D02*
X94275000Y-82408615D01*
X97047800Y-93653400D02*
X97366602Y-93653400D01*
X93982410Y-82570000D02*
X93517590Y-82570000D01*
X94305078Y-87739876D02*
X94305078Y-82438693D01*
X94275000Y-82408615D02*
X94275000Y-82145000D01*
X94250000Y-82302410D02*
X93982410Y-82570000D01*
X94250000Y-82120000D02*
X94250000Y-81545000D01*
X93250000Y-82302410D02*
X93250000Y-81545000D01*
X94742000Y-95959200D02*
X97047800Y-93653400D01*
X93517590Y-82570000D02*
X93250000Y-82302410D01*
X98250800Y-91685598D02*
X94305078Y-87739876D01*
X97366602Y-93653400D02*
X98250800Y-92769202D01*
X94275000Y-82145000D02*
X94250000Y-82120000D01*
X94250000Y-81545000D02*
X94250000Y-82302410D01*
%TO.N,Net-(J1-CC2)*%
X92250000Y-82534999D02*
X92250000Y-81545000D01*
X93218000Y-83183000D02*
X92898001Y-83183000D01*
X92898001Y-83183000D02*
X92250000Y-82534999D01*
%TO.N,Net-(J1-CC1)*%
X95377000Y-83310000D02*
X95250000Y-83183000D01*
X95250000Y-83183000D02*
X95250000Y-81545000D01*
%TO.N,GPIO6*%
X86741000Y-98321000D02*
X85110000Y-96690000D01*
X90625000Y-102000000D02*
X89376819Y-102000000D01*
X89376819Y-102000000D02*
X89084819Y-101708000D01*
X86741000Y-99949000D02*
X86741000Y-98321000D01*
X88500000Y-101708000D02*
X86741000Y-99949000D01*
X89084819Y-101708000D02*
X88500000Y-101708000D01*
%TO.N,GPIO14*%
X92262500Y-106053814D02*
X90276314Y-108040000D01*
X88900000Y-109118180D02*
X88900000Y-120650000D01*
X89978180Y-108040000D02*
X88900000Y-109118180D01*
X88900000Y-120650000D02*
X87503000Y-122047000D01*
X90276314Y-108040000D02*
X89978180Y-108040000D01*
X92262500Y-105237500D02*
X92262500Y-106053814D01*
X87503000Y-122047000D02*
X85153000Y-122047000D01*
X85153000Y-122047000D02*
X85110000Y-122090000D01*
%TO.N,GPIO15*%
X89300000Y-109283866D02*
X89300000Y-123425000D01*
X90143866Y-108440000D02*
X89300000Y-109283866D01*
X89300000Y-123425000D02*
X88095000Y-124630000D01*
X92662500Y-105237500D02*
X92662500Y-106219500D01*
X92662500Y-106219500D02*
X90441999Y-108440000D01*
X90441999Y-108440000D02*
X90143866Y-108440000D01*
X88095000Y-124630000D02*
X85110000Y-124630000D01*
%TO.N,GPIO9*%
X85280000Y-104140000D02*
X85110000Y-104310000D01*
X89385454Y-104140000D02*
X85280000Y-104140000D01*
X89925454Y-103600000D02*
X89385454Y-104140000D01*
X90625000Y-103600000D02*
X89925454Y-103600000D01*
%TO.N,GPIO0*%
X90625000Y-99600000D02*
X95375000Y-99600000D01*
X95375000Y-99600000D02*
X95475000Y-99700000D01*
%TO.N,GPIO11*%
X87700000Y-107325000D02*
X87700000Y-109340000D01*
X87700000Y-109340000D02*
X85110000Y-111930000D01*
X90625000Y-104400000D02*
X87700000Y-107325000D01*
%TO.N,GPIO4*%
X90625000Y-101200000D02*
X89708190Y-101200000D01*
X89092190Y-100584000D02*
X88900000Y-100584000D01*
X89708190Y-101200000D02*
X89092190Y-100584000D01*
%TO.N,GPIO12*%
X88100000Y-111480000D02*
X85110000Y-114470000D01*
X88100000Y-108600000D02*
X88100000Y-111480000D01*
X91462500Y-105237500D02*
X88100000Y-108600000D01*
%TO.N,GPIO2*%
X91567000Y-100711000D02*
X91256000Y-100400000D01*
X91256000Y-100400000D02*
X90625000Y-100400000D01*
X91567000Y-101346000D02*
X91567000Y-100711000D01*
%TO.N,GPIO10*%
X90091140Y-104000000D02*
X85110000Y-108981140D01*
X90625000Y-104000000D02*
X90091140Y-104000000D01*
X85110000Y-108981140D02*
X85110000Y-109390000D01*
%TO.N,GPIO8*%
X89736134Y-103200000D02*
X89576134Y-103360000D01*
X89576134Y-103360000D02*
X86700000Y-103360000D01*
X86700000Y-103360000D02*
X85110000Y-101770000D01*
X90625000Y-103200000D02*
X89736134Y-103200000D01*
%TO.N,GPIO3*%
X90625000Y-100800000D02*
X90091140Y-100800000D01*
X90091140Y-100800000D02*
X89643195Y-100352055D01*
X89643195Y-100352055D02*
X89643195Y-100286475D01*
%TO.N,GPIO7*%
X87503000Y-102108000D02*
X86741000Y-101346000D01*
X86741000Y-100861000D02*
X85110000Y-99230000D01*
X88919134Y-102108000D02*
X87503000Y-102108000D01*
X90625000Y-102400000D02*
X89211134Y-102400000D01*
X86741000Y-101346000D02*
X86741000Y-100861000D01*
X89211134Y-102400000D02*
X88919134Y-102108000D01*
%TO.N,GPIO13*%
X89993860Y-107640000D02*
X89812494Y-107640000D01*
X91862500Y-105771360D02*
X89993860Y-107640000D01*
X91862500Y-105237500D02*
X91862500Y-105771360D01*
X89812494Y-107640000D02*
X88500000Y-108952495D01*
X88500000Y-108952495D02*
X88500000Y-114700000D01*
X86190000Y-117010000D02*
X85110000Y-117010000D01*
X88500000Y-114700000D02*
X86190000Y-117010000D01*
%TO.N,GPIO22*%
X102890000Y-104310000D02*
X100980000Y-102400000D01*
X100980000Y-102400000D02*
X97500000Y-102400000D01*
%TO.N,GPIO28{slash}ADC2*%
X99593820Y-100000000D02*
X97500000Y-100000000D01*
X100965000Y-98171000D02*
X100940000Y-98196000D01*
X100940000Y-98653820D02*
X99593820Y-100000000D01*
X100940000Y-98196000D02*
X100940000Y-98653820D01*
X100965000Y-85915000D02*
X100965000Y-98171000D01*
X102890000Y-83990000D02*
X100965000Y-85915000D01*
%TO.N,GPIO29{slash}ADC3*%
X100457000Y-98571134D02*
X100457000Y-81343000D01*
X99993134Y-99035000D02*
X100457000Y-98571134D01*
X100457000Y-81343000D02*
X102890000Y-78910000D01*
X99593000Y-99035000D02*
X99993134Y-99035000D01*
X99028000Y-99600000D02*
X99593000Y-99035000D01*
X97500000Y-99600000D02*
X99028000Y-99600000D01*
%TO.N,GPIO26{slash}ADC0*%
X101740000Y-98187968D02*
X101740000Y-92760000D01*
X100188628Y-100800000D02*
X101340000Y-99648628D01*
X101740000Y-92760000D02*
X102890000Y-91610000D01*
X97500000Y-100800000D02*
X100188628Y-100800000D01*
X101340000Y-99648628D02*
X101340000Y-98587968D01*
X101340000Y-98587968D02*
X101740000Y-98187968D01*
%TO.N,GPIO27{slash}ADC1*%
X96577000Y-100400000D02*
X96520000Y-100457000D01*
X97500000Y-100400000D02*
X96577000Y-100400000D01*
%TO.N,GPIO17*%
X100140000Y-108715000D02*
X97961000Y-106536000D01*
X97241000Y-105816000D02*
X96662500Y-105237500D01*
X97961000Y-106069866D02*
X97707134Y-105816000D01*
X97707134Y-105816000D02*
X97241000Y-105816000D01*
X100140000Y-119340000D02*
X100140000Y-108715000D01*
X97961000Y-106536000D02*
X97961000Y-106069866D01*
X102890000Y-122090000D02*
X100140000Y-119340000D01*
%TO.N,GPIO19*%
X98404494Y-104000000D02*
X100940000Y-106535506D01*
X100940000Y-112520000D02*
X102890000Y-114470000D01*
X100940000Y-106535506D02*
X100940000Y-112520000D01*
X97500000Y-104000000D02*
X98404494Y-104000000D01*
%TO.N,GPIO24*%
X101740000Y-98753654D02*
X102890000Y-97603654D01*
X101740000Y-99814314D02*
X101740000Y-98753654D01*
X99954314Y-101600000D02*
X101740000Y-99814314D01*
X102890000Y-97603654D02*
X102890000Y-96690000D01*
X97500000Y-101600000D02*
X99954314Y-101600000D01*
%TO.N,GPIO21*%
X98735866Y-103200000D02*
X101740000Y-106204134D01*
X101740000Y-108240000D02*
X102890000Y-109390000D01*
X97500000Y-103200000D02*
X98735866Y-103200000D01*
X101740000Y-106204134D02*
X101740000Y-108240000D01*
%TO.N,GPIO23*%
X97500000Y-102000000D02*
X100120000Y-102000000D01*
X100120000Y-102000000D02*
X102890000Y-99230000D01*
%TO.N,GPIO18*%
X100540000Y-114660000D02*
X102890000Y-117010000D01*
X100540000Y-107440000D02*
X100540000Y-114660000D01*
X97500000Y-104400000D02*
X100540000Y-107440000D01*
%TO.N,GPIO20*%
X98570180Y-103600000D02*
X101340000Y-106369820D01*
X97500000Y-103600000D02*
X98570180Y-103600000D01*
X101340000Y-106369820D02*
X101340000Y-110380000D01*
X101340000Y-110380000D02*
X102890000Y-111930000D01*
%TO.N,SWCLK*%
X95062500Y-104389189D02*
X95062500Y-105237500D01*
X95171118Y-104042415D02*
X95171118Y-104280570D01*
X95028705Y-103900002D02*
X95171118Y-104042415D01*
X95028705Y-103899999D02*
X95028705Y-103900002D01*
X95171118Y-104280570D02*
X95062500Y-104389189D01*
%TO.N,Net-(U1-USB_DM)*%
X95462500Y-97300100D02*
X95462500Y-98362500D01*
X95783400Y-96979200D02*
X95462500Y-97300100D01*
%TO.N,Net-(U1-USB_DP)*%
X95062500Y-97299700D02*
X95062500Y-98362500D01*
X94742000Y-96979200D02*
X95062500Y-97299700D01*
%TO.N,XOUT*%
X93490000Y-107000000D02*
X93862500Y-106627500D01*
X93862500Y-106627500D02*
X93862500Y-105237500D01*
%TO.N,Net-(R7-Pad1)*%
X88646000Y-90492000D02*
X88646000Y-91184000D01*
X88646000Y-91184000D02*
X89027000Y-91565000D01*
%TO.N,QSPI_SD0*%
X92662500Y-96187500D02*
X92662500Y-98362500D01*
X92325000Y-95850000D02*
X92662500Y-96187500D01*
%TO.N,QSPI_SCLK*%
X93062500Y-95623114D02*
X92789386Y-95350000D01*
X93062500Y-98362500D02*
X93062500Y-95623114D01*
X92789386Y-95350000D02*
X92325000Y-95350000D01*
%TO.N,QSPI_SD3*%
X92902536Y-94850000D02*
X92325000Y-94850000D01*
X93462500Y-98362500D02*
X93462500Y-95409964D01*
X93462500Y-95409964D02*
X92902536Y-94850000D01*
%TO.N,QSPI_SD2*%
X92262500Y-98362500D02*
X92262500Y-97662954D01*
X92262500Y-97662954D02*
X91824545Y-97225000D01*
X90400000Y-95910614D02*
X89839386Y-95350000D01*
X89839386Y-95350000D02*
X89375000Y-95350000D01*
X90400000Y-96200000D02*
X90400000Y-95910614D01*
X91824545Y-96799545D02*
X91225000Y-96200000D01*
X91824545Y-97225000D02*
X91824545Y-96799545D01*
X91225000Y-96200000D02*
X90400000Y-96200000D01*
%TO.N,+3V3*%
X93149910Y-103700000D02*
X93349912Y-103900002D01*
%TO.N,+1V1*%
X94662500Y-104462500D02*
X94223057Y-104023057D01*
X93175000Y-94313576D02*
X93436576Y-94313576D01*
X93436576Y-94313576D02*
X93853000Y-94730000D01*
X94223057Y-104023057D02*
X94223057Y-103905610D01*
X94662500Y-105237500D02*
X94662500Y-104462500D01*
%TO.N,GND*%
X97405000Y-81545000D02*
X98320000Y-80630000D01*
X97250000Y-81545000D02*
X97405000Y-81545000D01*
%TD*%
%TA.AperFunction,Conductor*%
%TO.N,GND*%
G36*
X93534075Y-124582993D02*
G01*
X93599901Y-124697007D01*
X93692993Y-124790099D01*
X93807007Y-124855925D01*
X93814822Y-124858019D01*
X93412543Y-125260298D01*
X93430652Y-125272398D01*
X93475457Y-125326010D01*
X93484164Y-125395335D01*
X93454010Y-125458362D01*
X93394567Y-125495082D01*
X93361761Y-125499500D01*
X92924886Y-125499500D01*
X92857847Y-125479815D01*
X92812092Y-125427011D01*
X92802148Y-125357853D01*
X92804060Y-125347765D01*
X92804090Y-125347485D01*
X92804091Y-125347483D01*
X92810500Y-125287873D01*
X92810499Y-124885463D01*
X92830183Y-124818427D01*
X92882987Y-124772672D01*
X92952146Y-124762728D01*
X93015702Y-124791753D01*
X93049059Y-124838012D01*
X93069497Y-124887353D01*
X93069505Y-124887367D01*
X93129701Y-124977455D01*
X93531980Y-124575176D01*
X93534075Y-124582993D01*
G37*
%TD.AperFunction*%
%TA.AperFunction,Conductor*%
G36*
X94870298Y-124977456D02*
G01*
X94930499Y-124887359D01*
X94998633Y-124722870D01*
X95042474Y-124668467D01*
X95108768Y-124646402D01*
X95176467Y-124663681D01*
X95224078Y-124714818D01*
X95231123Y-124732000D01*
X95281605Y-124887367D01*
X95288444Y-124908414D01*
X95384951Y-125097820D01*
X95509890Y-125269786D01*
X95527923Y-125287819D01*
X95561408Y-125349142D01*
X95556424Y-125418834D01*
X95514552Y-125474767D01*
X95449088Y-125499184D01*
X95440242Y-125499500D01*
X94638239Y-125499500D01*
X94571200Y-125479815D01*
X94525445Y-125427011D01*
X94515501Y-125357853D01*
X94544526Y-125294297D01*
X94569348Y-125272398D01*
X94587456Y-125260298D01*
X94185177Y-124858019D01*
X94192993Y-124855925D01*
X94307007Y-124790099D01*
X94400099Y-124697007D01*
X94465925Y-124582993D01*
X94468019Y-124575177D01*
X94870298Y-124977456D01*
G37*
%TD.AperFunction*%
%TA.AperFunction,Conductor*%
G36*
X97348039Y-107094685D02*
G01*
X97393794Y-107147489D01*
X97405000Y-107199000D01*
X97405000Y-107591000D01*
X97398759Y-107612252D01*
X97397176Y-107634349D01*
X97389107Y-107645124D01*
X97385315Y-107658039D01*
X97368575Y-107672543D01*
X97364981Y-107677343D01*
X97366319Y-107678681D01*
X97357008Y-107687991D01*
X97355297Y-107690277D01*
X97354033Y-107690966D01*
X97330000Y-107715000D01*
X97330000Y-107825000D01*
X97610000Y-107825000D01*
X97610000Y-107815166D01*
X97609998Y-107815149D01*
X97603481Y-107765645D01*
X97548223Y-107647144D01*
X97550418Y-107646119D01*
X97532934Y-107594282D01*
X97549940Y-107526513D01*
X97569155Y-107501675D01*
X97627809Y-107443021D01*
X97677304Y-107336879D01*
X97723476Y-107284439D01*
X97790669Y-107265287D01*
X97857551Y-107285502D01*
X97877367Y-107301602D01*
X99503181Y-108927416D01*
X99536666Y-108988739D01*
X99539500Y-109015097D01*
X99539500Y-119253330D01*
X99539499Y-119253348D01*
X99539499Y-119419054D01*
X99539498Y-119419054D01*
X99580423Y-119571785D01*
X99609358Y-119621900D01*
X99609359Y-119621904D01*
X99609360Y-119621904D01*
X99659479Y-119708714D01*
X99659481Y-119708717D01*
X99778349Y-119827585D01*
X99778355Y-119827590D01*
X101556241Y-121605476D01*
X101589726Y-121666799D01*
X101586492Y-121731473D01*
X101572753Y-121773757D01*
X101555465Y-121882914D01*
X101539500Y-121983713D01*
X101539500Y-122196287D01*
X101572754Y-122406243D01*
X101612159Y-122527520D01*
X101638444Y-122608414D01*
X101734951Y-122797820D01*
X101859890Y-122969786D01*
X102010213Y-123120109D01*
X102182182Y-123245050D01*
X102190946Y-123249516D01*
X102241742Y-123297491D01*
X102258536Y-123365312D01*
X102235998Y-123431447D01*
X102190946Y-123470484D01*
X102182182Y-123474949D01*
X102010213Y-123599890D01*
X101859890Y-123750213D01*
X101734951Y-123922179D01*
X101638444Y-124111585D01*
X101572753Y-124313760D01*
X101539500Y-124523713D01*
X101539500Y-124736286D01*
X101563427Y-124887359D01*
X101572754Y-124946243D01*
X101622003Y-125097816D01*
X101638444Y-125148414D01*
X101725466Y-125319205D01*
X101738362Y-125387875D01*
X101712086Y-125452615D01*
X101654979Y-125492872D01*
X101614981Y-125499500D01*
X97639758Y-125499500D01*
X97572719Y-125479815D01*
X97526964Y-125427011D01*
X97517020Y-125357853D01*
X97546045Y-125294297D01*
X97552077Y-125287819D01*
X97570104Y-125269792D01*
X97570106Y-125269788D01*
X97570109Y-125269786D01*
X97695048Y-125097820D01*
X97695047Y-125097820D01*
X97695051Y-125097816D01*
X97791557Y-124908412D01*
X97857246Y-124706243D01*
X97890500Y-124496287D01*
X97890500Y-124283713D01*
X97857246Y-124073757D01*
X97791557Y-123871588D01*
X97695051Y-123682184D01*
X97695049Y-123682181D01*
X97695048Y-123682179D01*
X97570109Y-123510213D01*
X97419786Y-123359890D01*
X97247820Y-123234951D01*
X97058414Y-123138444D01*
X97058413Y-123138443D01*
X97058412Y-123138443D01*
X96856243Y-123072754D01*
X96856241Y-123072753D01*
X96856240Y-123072753D01*
X96694957Y-123047208D01*
X96646287Y-123039500D01*
X96433713Y-123039500D01*
X96385042Y-123047208D01*
X96223760Y-123072753D01*
X96021585Y-123138444D01*
X95832179Y-123234951D01*
X95660213Y-123359890D01*
X95509890Y-123510213D01*
X95384951Y-123682179D01*
X95288444Y-123871585D01*
X95288443Y-123871587D01*
X95288443Y-123871588D01*
X95240723Y-124018456D01*
X95231125Y-124047994D01*
X95191687Y-124105670D01*
X95127329Y-124132868D01*
X95058482Y-124120953D01*
X95007007Y-124073709D01*
X94998633Y-124057129D01*
X94930499Y-123892640D01*
X94870298Y-123802542D01*
X94468018Y-124204821D01*
X94465925Y-124197007D01*
X94400099Y-124082993D01*
X94307007Y-123989901D01*
X94192993Y-123924075D01*
X94185177Y-123921980D01*
X94587455Y-123519701D01*
X94587455Y-123519700D01*
X94497367Y-123459505D01*
X94497358Y-123459500D01*
X94306274Y-123380350D01*
X94306266Y-123380348D01*
X94103420Y-123340000D01*
X93896579Y-123340000D01*
X93693733Y-123380348D01*
X93693725Y-123380350D01*
X93502639Y-123459500D01*
X93412543Y-123519700D01*
X93412543Y-123519701D01*
X93814822Y-123921980D01*
X93807007Y-123924075D01*
X93692993Y-123989901D01*
X93599901Y-124082993D01*
X93534075Y-124197007D01*
X93531980Y-124204822D01*
X93129701Y-123802543D01*
X93129700Y-123802543D01*
X93069500Y-123892640D01*
X93049060Y-123941988D01*
X93005218Y-123996392D01*
X92938924Y-124018456D01*
X92871225Y-124001176D01*
X92823615Y-123950039D01*
X92810499Y-123894535D01*
X92810499Y-123492129D01*
X92810498Y-123492123D01*
X92808652Y-123474951D01*
X92804091Y-123432517D01*
X92800359Y-123422512D01*
X92753797Y-123297671D01*
X92753793Y-123297664D01*
X92667547Y-123182455D01*
X92667544Y-123182452D01*
X92552335Y-123096206D01*
X92552328Y-123096202D01*
X92417482Y-123045908D01*
X92417483Y-123045908D01*
X92357883Y-123039501D01*
X92357881Y-123039500D01*
X92357873Y-123039500D01*
X92357864Y-123039500D01*
X90562129Y-123039500D01*
X90562123Y-123039501D01*
X90502516Y-123045908D01*
X90367671Y-123096202D01*
X90367664Y-123096206D01*
X90252455Y-123182452D01*
X90252452Y-123182455D01*
X90166206Y-123297664D01*
X90166202Y-123297671D01*
X90140682Y-123366096D01*
X90098811Y-123422030D01*
X90033347Y-123446447D01*
X89965074Y-123431595D01*
X89915668Y-123382190D01*
X89900500Y-123322763D01*
X89900500Y-110826356D01*
X89920185Y-110759317D01*
X89972989Y-110713562D01*
X90042147Y-110703618D01*
X90066091Y-110710391D01*
X90066113Y-110710318D01*
X90229002Y-110757642D01*
X90229005Y-110757642D01*
X90229007Y-110757643D01*
X90265310Y-110760500D01*
X90265318Y-110760500D01*
X90734682Y-110760500D01*
X90734690Y-110760500D01*
X90770993Y-110757643D01*
X90770995Y-110757642D01*
X90770997Y-110757642D01*
X90811975Y-110745736D01*
X90926395Y-110712494D01*
X91013541Y-110660955D01*
X91081263Y-110643773D01*
X91147526Y-110665933D01*
X91191290Y-110720399D01*
X91200019Y-110755086D01*
X91210001Y-110852797D01*
X91210001Y-110852799D01*
X91265184Y-111019329D01*
X91265186Y-111019334D01*
X91357288Y-111168656D01*
X91481344Y-111292712D01*
X91630666Y-111384814D01*
X91797203Y-111439999D01*
X91899991Y-111450500D01*
X92900008Y-111450499D01*
X92900016Y-111450498D01*
X92900019Y-111450498D01*
X92956302Y-111444748D01*
X93002797Y-111439999D01*
X93169334Y-111384814D01*
X93318656Y-111292712D01*
X93442712Y-111168656D01*
X93534814Y-111019334D01*
X93549856Y-110973937D01*
X93589628Y-110916494D01*
X93654144Y-110889670D01*
X93722920Y-110901985D01*
X93767332Y-110939308D01*
X93828207Y-111021792D01*
X93937354Y-111102346D01*
X94065397Y-111147149D01*
X94095792Y-111149999D01*
X94399999Y-111149999D01*
X94800000Y-111149999D01*
X95104196Y-111149999D01*
X95134606Y-111147148D01*
X95262645Y-111102346D01*
X95371792Y-111021792D01*
X95452346Y-110912645D01*
X95497149Y-110784604D01*
X95497149Y-110784600D01*
X95500000Y-110754206D01*
X95500000Y-110550000D01*
X94800000Y-110550000D01*
X94800000Y-111149999D01*
X94399999Y-111149999D01*
X94400000Y-111149998D01*
X94400000Y-110474000D01*
X94419685Y-110406961D01*
X94472489Y-110361206D01*
X94524000Y-110350000D01*
X94600000Y-110350000D01*
X94600000Y-110274000D01*
X94619685Y-110206961D01*
X94650800Y-110180000D01*
X95992654Y-110180000D01*
X95996518Y-110209351D01*
X95996519Y-110209355D01*
X96047192Y-110318024D01*
X96131975Y-110402807D01*
X96240646Y-110453481D01*
X96240645Y-110453481D01*
X96290149Y-110459998D01*
X96290167Y-110460000D01*
X96300000Y-110460000D01*
X96700000Y-110460000D01*
X96709833Y-110460000D01*
X96709850Y-110459998D01*
X96759354Y-110453481D01*
X96868024Y-110402807D01*
X96952807Y-110318024D01*
X97003480Y-110209355D01*
X97003481Y-110209351D01*
X97007346Y-110180000D01*
X96700000Y-110180000D01*
X96700000Y-110460000D01*
X96300000Y-110460000D01*
X96300000Y-110180000D01*
X95992654Y-110180000D01*
X94650800Y-110180000D01*
X94672489Y-110161206D01*
X94724000Y-110150000D01*
X95499999Y-110150000D01*
X95499999Y-109945803D01*
X95497148Y-109915393D01*
X95451681Y-109785454D01*
X95448120Y-109715675D01*
X95482849Y-109655048D01*
X95544843Y-109622821D01*
X95568723Y-109620500D01*
X95833333Y-109620500D01*
X95900372Y-109640185D01*
X95921014Y-109656819D01*
X95934307Y-109670112D01*
X95940476Y-109674897D01*
X95939102Y-109676667D01*
X95979034Y-109719436D01*
X95989368Y-109776253D01*
X95992654Y-109780000D01*
X96150633Y-109780000D01*
X96185227Y-109784923D01*
X96229007Y-109797643D01*
X96265310Y-109800500D01*
X96265318Y-109800500D01*
X96734682Y-109800500D01*
X96734690Y-109800500D01*
X96770993Y-109797643D01*
X96814772Y-109784923D01*
X96849367Y-109780000D01*
X97007346Y-109780000D01*
X97011292Y-109775500D01*
X97019595Y-109722249D01*
X97060502Y-109676158D01*
X97059524Y-109674897D01*
X97065680Y-109670120D01*
X97065687Y-109670117D01*
X97180117Y-109555687D01*
X97262494Y-109416395D01*
X97307643Y-109260993D01*
X97310500Y-109224690D01*
X97310500Y-108815310D01*
X97307643Y-108779007D01*
X97279142Y-108680907D01*
X97279341Y-108611040D01*
X97317282Y-108552369D01*
X97351393Y-108533851D01*
X97350758Y-108532490D01*
X97468024Y-108477807D01*
X97552807Y-108393024D01*
X97603481Y-108284354D01*
X97609998Y-108234850D01*
X97610000Y-108234833D01*
X97610000Y-108225000D01*
X97254000Y-108225000D01*
X97186961Y-108205315D01*
X97141206Y-108152511D01*
X97130000Y-108101000D01*
X97130000Y-108025000D01*
X97074500Y-108025000D01*
X97007461Y-108005315D01*
X96961706Y-107952511D01*
X96950500Y-107901000D01*
X96950500Y-107790317D01*
X96950499Y-107790302D01*
X96947643Y-107754008D01*
X96947642Y-107754002D01*
X96934924Y-107710227D01*
X96934936Y-107705832D01*
X96932830Y-107701974D01*
X96930000Y-107675632D01*
X96930000Y-107615625D01*
X96947267Y-107552504D01*
X96977494Y-107501395D01*
X97022643Y-107345993D01*
X97025500Y-107309690D01*
X97025500Y-107199000D01*
X97045185Y-107131961D01*
X97097989Y-107086206D01*
X97149500Y-107075000D01*
X97281000Y-107075000D01*
X97348039Y-107094685D01*
G37*
%TD.AperFunction*%
%TA.AperFunction,Conductor*%
G36*
X88218834Y-115932914D02*
G01*
X88274767Y-115974786D01*
X88299184Y-116040250D01*
X88299500Y-116049096D01*
X88299500Y-120349903D01*
X88279815Y-120416942D01*
X88263181Y-120437584D01*
X87290584Y-121410181D01*
X87229261Y-121443666D01*
X87202903Y-121446500D01*
X86373809Y-121446500D01*
X86306770Y-121426815D01*
X86269238Y-121385329D01*
X86267596Y-121386336D01*
X86265051Y-121382184D01*
X86140109Y-121210213D01*
X85989786Y-121059890D01*
X85817820Y-120934951D01*
X85628414Y-120838444D01*
X85628413Y-120838443D01*
X85628412Y-120838443D01*
X85452003Y-120781124D01*
X85394329Y-120741687D01*
X85367131Y-120677329D01*
X85379046Y-120608482D01*
X85426290Y-120557007D01*
X85442870Y-120548633D01*
X85607359Y-120480499D01*
X85697456Y-120420298D01*
X85295177Y-120018019D01*
X85302993Y-120015925D01*
X85417007Y-119950099D01*
X85510099Y-119857007D01*
X85575925Y-119742993D01*
X85578019Y-119735177D01*
X85980298Y-120137456D01*
X86040499Y-120047359D01*
X86119649Y-119856274D01*
X86119651Y-119856266D01*
X86159999Y-119653420D01*
X86160000Y-119653417D01*
X86160000Y-119446583D01*
X86159999Y-119446579D01*
X86119651Y-119243733D01*
X86119649Y-119243725D01*
X86040499Y-119052640D01*
X85980298Y-118962542D01*
X85578018Y-119364821D01*
X85575925Y-119357007D01*
X85510099Y-119242993D01*
X85417007Y-119149901D01*
X85302993Y-119084075D01*
X85295177Y-119081980D01*
X85697455Y-118679701D01*
X85697455Y-118679700D01*
X85607367Y-118619505D01*
X85607358Y-118619500D01*
X85442870Y-118551366D01*
X85388466Y-118507525D01*
X85366402Y-118441230D01*
X85383682Y-118373531D01*
X85434819Y-118325921D01*
X85451988Y-118318880D01*
X85628412Y-118261557D01*
X85817816Y-118165051D01*
X85893921Y-118109758D01*
X85989786Y-118040109D01*
X85989788Y-118040106D01*
X85989792Y-118040104D01*
X86140104Y-117889792D01*
X86265051Y-117717816D01*
X86302679Y-117643964D01*
X86350650Y-117593171D01*
X86381068Y-117580486D01*
X86421785Y-117569577D01*
X86471904Y-117540639D01*
X86558716Y-117490520D01*
X86670520Y-117378716D01*
X86670520Y-117378714D01*
X86680728Y-117368507D01*
X86680729Y-117368504D01*
X88087820Y-115961413D01*
X88149142Y-115927930D01*
X88218834Y-115932914D01*
G37*
%TD.AperFunction*%
%TA.AperFunction,Conductor*%
G36*
X103760297Y-120137455D02*
G01*
X103772398Y-120119347D01*
X103826010Y-120074542D01*
X103895335Y-120065835D01*
X103958362Y-120095989D01*
X103995082Y-120155432D01*
X103999500Y-120188238D01*
X103999500Y-120990242D01*
X103979815Y-121057281D01*
X103927011Y-121103036D01*
X103857853Y-121112980D01*
X103794297Y-121083955D01*
X103787819Y-121077923D01*
X103769786Y-121059890D01*
X103597820Y-120934951D01*
X103408414Y-120838444D01*
X103408413Y-120838443D01*
X103408412Y-120838443D01*
X103232003Y-120781124D01*
X103174329Y-120741687D01*
X103147131Y-120677329D01*
X103159046Y-120608482D01*
X103206290Y-120557007D01*
X103222870Y-120548633D01*
X103387359Y-120480499D01*
X103477456Y-120420298D01*
X103075177Y-120018019D01*
X103082993Y-120015925D01*
X103197007Y-119950099D01*
X103290099Y-119857007D01*
X103355925Y-119742993D01*
X103358019Y-119735177D01*
X103760297Y-120137455D01*
G37*
%TD.AperFunction*%
%TA.AperFunction,Conductor*%
G36*
X84644075Y-119742993D02*
G01*
X84709901Y-119857007D01*
X84802993Y-119950099D01*
X84917007Y-120015925D01*
X84924822Y-120018019D01*
X84522542Y-120420298D01*
X84612640Y-120480499D01*
X84777129Y-120548633D01*
X84831532Y-120592474D01*
X84853597Y-120658768D01*
X84836318Y-120726468D01*
X84785180Y-120774078D01*
X84767994Y-120781125D01*
X84591585Y-120838444D01*
X84402179Y-120934951D01*
X84230213Y-121059890D01*
X84230209Y-121059894D01*
X84212181Y-121077923D01*
X84150858Y-121111408D01*
X84081166Y-121106424D01*
X84025233Y-121064552D01*
X84000816Y-120999088D01*
X84000500Y-120990242D01*
X84000500Y-120188239D01*
X84020185Y-120121200D01*
X84072989Y-120075445D01*
X84142147Y-120065501D01*
X84205703Y-120094526D01*
X84227602Y-120119348D01*
X84239701Y-120137455D01*
X84641980Y-119735176D01*
X84644075Y-119742993D01*
G37*
%TD.AperFunction*%
%TA.AperFunction,Conductor*%
G36*
X100945703Y-115915384D02*
G01*
X100952181Y-115921416D01*
X101556241Y-116525476D01*
X101589726Y-116586799D01*
X101586492Y-116651473D01*
X101572753Y-116693757D01*
X101539500Y-116903713D01*
X101539500Y-117116287D01*
X101572754Y-117326243D01*
X101586486Y-117368507D01*
X101638444Y-117528414D01*
X101734951Y-117717820D01*
X101859890Y-117889786D01*
X102010213Y-118040109D01*
X102182179Y-118165048D01*
X102182181Y-118165049D01*
X102182184Y-118165051D01*
X102371588Y-118261557D01*
X102547996Y-118318876D01*
X102605669Y-118358311D01*
X102632868Y-118422670D01*
X102620954Y-118491516D01*
X102573710Y-118542992D01*
X102557130Y-118551366D01*
X102392638Y-118619501D01*
X102302543Y-118679700D01*
X102302543Y-118679701D01*
X102704822Y-119081980D01*
X102697007Y-119084075D01*
X102582993Y-119149901D01*
X102489901Y-119242993D01*
X102424075Y-119357007D01*
X102421980Y-119364822D01*
X102019701Y-118962543D01*
X102019700Y-118962543D01*
X101959500Y-119052639D01*
X101880350Y-119243725D01*
X101880348Y-119243733D01*
X101840000Y-119446579D01*
X101840000Y-119653420D01*
X101880348Y-119856266D01*
X101880350Y-119856274D01*
X101906842Y-119920231D01*
X101914311Y-119989701D01*
X101883036Y-120052180D01*
X101822947Y-120087832D01*
X101753122Y-120085338D01*
X101704600Y-120055365D01*
X100776819Y-119127584D01*
X100743334Y-119066261D01*
X100740500Y-119039903D01*
X100740500Y-116009097D01*
X100760185Y-115942058D01*
X100812989Y-115896303D01*
X100882147Y-115886359D01*
X100945703Y-115915384D01*
G37*
%TD.AperFunction*%
%TA.AperFunction,Conductor*%
G36*
X84205703Y-118016045D02*
G01*
X84212181Y-118022077D01*
X84230213Y-118040109D01*
X84402179Y-118165048D01*
X84402181Y-118165049D01*
X84402184Y-118165051D01*
X84591588Y-118261557D01*
X84767996Y-118318876D01*
X84825669Y-118358311D01*
X84852868Y-118422670D01*
X84840954Y-118491516D01*
X84793710Y-118542992D01*
X84777130Y-118551366D01*
X84612638Y-118619501D01*
X84522543Y-118679700D01*
X84522543Y-118679701D01*
X84924822Y-119081980D01*
X84917007Y-119084075D01*
X84802993Y-119149901D01*
X84709901Y-119242993D01*
X84644075Y-119357007D01*
X84641980Y-119364822D01*
X84239701Y-118962543D01*
X84239700Y-118962543D01*
X84227602Y-118980650D01*
X84173990Y-119025455D01*
X84104665Y-119034162D01*
X84041638Y-119004008D01*
X84004918Y-118944565D01*
X84000500Y-118911759D01*
X84000500Y-118109758D01*
X84020185Y-118042719D01*
X84072989Y-117996964D01*
X84142147Y-117987020D01*
X84205703Y-118016045D01*
G37*
%TD.AperFunction*%
%TA.AperFunction,Conductor*%
G36*
X103918834Y-117993576D02*
G01*
X103974767Y-118035448D01*
X103999184Y-118100912D01*
X103999500Y-118109758D01*
X103999500Y-118911760D01*
X103979815Y-118978799D01*
X103927011Y-119024554D01*
X103857853Y-119034498D01*
X103794297Y-119005473D01*
X103772398Y-118980651D01*
X103760298Y-118962542D01*
X103358018Y-119364821D01*
X103355925Y-119357007D01*
X103290099Y-119242993D01*
X103197007Y-119149901D01*
X103082993Y-119084075D01*
X103075177Y-119081980D01*
X103477455Y-118679701D01*
X103477455Y-118679700D01*
X103387367Y-118619505D01*
X103387358Y-118619500D01*
X103222870Y-118551366D01*
X103168466Y-118507525D01*
X103146402Y-118441230D01*
X103163682Y-118373531D01*
X103214819Y-118325921D01*
X103231988Y-118318880D01*
X103408412Y-118261557D01*
X103597816Y-118165051D01*
X103673921Y-118109758D01*
X103769786Y-118040109D01*
X103769788Y-118040106D01*
X103769792Y-118040104D01*
X103787819Y-118022077D01*
X103849142Y-117988592D01*
X103918834Y-117993576D01*
G37*
%TD.AperFunction*%
%TA.AperFunction,Conductor*%
G36*
X103760297Y-107437455D02*
G01*
X103772398Y-107419347D01*
X103826010Y-107374542D01*
X103895335Y-107365835D01*
X103958362Y-107395989D01*
X103995082Y-107455432D01*
X103999500Y-107488238D01*
X103999500Y-108290242D01*
X103979815Y-108357281D01*
X103927011Y-108403036D01*
X103857853Y-108412980D01*
X103794297Y-108383955D01*
X103787819Y-108377923D01*
X103769786Y-108359890D01*
X103597820Y-108234951D01*
X103408414Y-108138444D01*
X103408413Y-108138443D01*
X103408412Y-108138443D01*
X103232003Y-108081124D01*
X103174329Y-108041687D01*
X103147131Y-107977329D01*
X103159046Y-107908482D01*
X103206290Y-107857007D01*
X103222870Y-107848633D01*
X103387359Y-107780499D01*
X103477456Y-107720298D01*
X103075177Y-107318019D01*
X103082993Y-107315925D01*
X103197007Y-107250099D01*
X103290099Y-107157007D01*
X103355925Y-107042993D01*
X103358019Y-107035177D01*
X103760297Y-107437455D01*
G37*
%TD.AperFunction*%
%TA.AperFunction,Conductor*%
G36*
X84644075Y-107042993D02*
G01*
X84709901Y-107157007D01*
X84802993Y-107250099D01*
X84917007Y-107315925D01*
X84924822Y-107318019D01*
X84522542Y-107720298D01*
X84612640Y-107780499D01*
X84777129Y-107848633D01*
X84831532Y-107892474D01*
X84853597Y-107958768D01*
X84836318Y-108026468D01*
X84785180Y-108074078D01*
X84767994Y-108081124D01*
X84652301Y-108118716D01*
X84591585Y-108138444D01*
X84402179Y-108234951D01*
X84230213Y-108359890D01*
X84230209Y-108359894D01*
X84212181Y-108377923D01*
X84150858Y-108411408D01*
X84081166Y-108406424D01*
X84025233Y-108364552D01*
X84000816Y-108299088D01*
X84000500Y-108290242D01*
X84000500Y-107488239D01*
X84020185Y-107421200D01*
X84072989Y-107375445D01*
X84142147Y-107365501D01*
X84205703Y-107394526D01*
X84227602Y-107419348D01*
X84239701Y-107437455D01*
X84641980Y-107035176D01*
X84644075Y-107042993D01*
G37*
%TD.AperFunction*%
%TA.AperFunction,Conductor*%
G36*
X88269081Y-104760185D02*
G01*
X88314836Y-104812989D01*
X88324780Y-104882147D01*
X88295755Y-104945703D01*
X88289723Y-104952181D01*
X86371681Y-106870222D01*
X86310358Y-106903707D01*
X86240666Y-106898723D01*
X86184733Y-106856851D01*
X86160316Y-106791387D01*
X86160000Y-106782541D01*
X86160000Y-106746583D01*
X86159999Y-106746579D01*
X86119651Y-106543733D01*
X86119649Y-106543725D01*
X86040499Y-106352640D01*
X85980298Y-106262542D01*
X85578019Y-106664822D01*
X85575925Y-106657007D01*
X85510099Y-106542993D01*
X85417007Y-106449901D01*
X85302993Y-106384075D01*
X85295177Y-106381980D01*
X85697455Y-105979701D01*
X85697455Y-105979700D01*
X85607367Y-105919505D01*
X85607358Y-105919500D01*
X85442870Y-105851366D01*
X85388466Y-105807525D01*
X85366402Y-105741230D01*
X85383682Y-105673531D01*
X85434819Y-105625921D01*
X85451988Y-105618880D01*
X85628412Y-105561557D01*
X85817816Y-105465051D01*
X85893921Y-105409758D01*
X85989786Y-105340109D01*
X85989788Y-105340106D01*
X85989792Y-105340104D01*
X86140104Y-105189792D01*
X86140106Y-105189788D01*
X86140109Y-105189786D01*
X86265048Y-105017820D01*
X86265047Y-105017820D01*
X86265051Y-105017816D01*
X86361557Y-104828412D01*
X86362282Y-104826181D01*
X86362787Y-104825442D01*
X86363421Y-104823912D01*
X86363742Y-104824045D01*
X86401720Y-104768506D01*
X86466079Y-104741308D01*
X86480213Y-104740500D01*
X88202042Y-104740500D01*
X88269081Y-104760185D01*
G37*
%TD.AperFunction*%
%TA.AperFunction,Conductor*%
G36*
X84205703Y-105316045D02*
G01*
X84212181Y-105322077D01*
X84230213Y-105340109D01*
X84402179Y-105465048D01*
X84402181Y-105465049D01*
X84402184Y-105465051D01*
X84591588Y-105561557D01*
X84767996Y-105618876D01*
X84825669Y-105658311D01*
X84852868Y-105722670D01*
X84840954Y-105791516D01*
X84793710Y-105842992D01*
X84777130Y-105851366D01*
X84612638Y-105919501D01*
X84522543Y-105979700D01*
X84522543Y-105979701D01*
X84924822Y-106381980D01*
X84917007Y-106384075D01*
X84802993Y-106449901D01*
X84709901Y-106542993D01*
X84644075Y-106657007D01*
X84641980Y-106664822D01*
X84239701Y-106262543D01*
X84239700Y-106262543D01*
X84227602Y-106280650D01*
X84173990Y-106325455D01*
X84104665Y-106334162D01*
X84041638Y-106304008D01*
X84004918Y-106244565D01*
X84000500Y-106211759D01*
X84000500Y-105409758D01*
X84020185Y-105342719D01*
X84072989Y-105296964D01*
X84142147Y-105287020D01*
X84205703Y-105316045D01*
G37*
%TD.AperFunction*%
%TA.AperFunction,Conductor*%
G36*
X103918834Y-105293576D02*
G01*
X103974767Y-105335448D01*
X103999184Y-105400912D01*
X103999500Y-105409758D01*
X103999500Y-106211760D01*
X103979815Y-106278799D01*
X103927011Y-106324554D01*
X103857853Y-106334498D01*
X103794297Y-106305473D01*
X103772398Y-106280651D01*
X103760298Y-106262542D01*
X103358018Y-106664821D01*
X103355925Y-106657007D01*
X103290099Y-106542993D01*
X103197007Y-106449901D01*
X103082993Y-106384075D01*
X103075175Y-106381980D01*
X103477455Y-105979701D01*
X103477455Y-105979700D01*
X103387367Y-105919505D01*
X103387358Y-105919500D01*
X103222870Y-105851366D01*
X103168466Y-105807525D01*
X103146402Y-105741230D01*
X103163682Y-105673531D01*
X103214819Y-105625921D01*
X103231988Y-105618880D01*
X103408412Y-105561557D01*
X103597816Y-105465051D01*
X103673921Y-105409758D01*
X103769786Y-105340109D01*
X103769788Y-105340106D01*
X103769792Y-105340104D01*
X103787819Y-105322077D01*
X103849142Y-105288592D01*
X103918834Y-105293576D01*
G37*
%TD.AperFunction*%
%TA.AperFunction,Conductor*%
G36*
X101194795Y-103464030D02*
G01*
X101556241Y-103825476D01*
X101589726Y-103886799D01*
X101586492Y-103951473D01*
X101572753Y-103993757D01*
X101543008Y-104181564D01*
X101539500Y-104203713D01*
X101539500Y-104416287D01*
X101572754Y-104626243D01*
X101618978Y-104768506D01*
X101638444Y-104828414D01*
X101724446Y-104997203D01*
X101737342Y-105065872D01*
X101711066Y-105130613D01*
X101653959Y-105170870D01*
X101584154Y-105173862D01*
X101526280Y-105141179D01*
X100643453Y-104258352D01*
X100609968Y-104197029D01*
X100614952Y-104127337D01*
X100656824Y-104071404D01*
X100660011Y-104069095D01*
X100721063Y-104026346D01*
X100751461Y-103986731D01*
X100751464Y-103986726D01*
X100756383Y-103978205D01*
X100756383Y-103978204D01*
X100448078Y-103800204D01*
X100399862Y-103749637D01*
X100386639Y-103681030D01*
X100402691Y-103630816D01*
X100478692Y-103499181D01*
X100529260Y-103450966D01*
X100597867Y-103437744D01*
X100648079Y-103453795D01*
X100956383Y-103631795D01*
X100961296Y-103623285D01*
X100961306Y-103623266D01*
X100980416Y-103577131D01*
X100983586Y-103540905D01*
X101009038Y-103475836D01*
X101065628Y-103434857D01*
X101135390Y-103430978D01*
X101194795Y-103464030D01*
G37*
%TD.AperFunction*%
%TA.AperFunction,Conductor*%
G36*
X94859099Y-100220185D02*
G01*
X94879736Y-100236814D01*
X94963834Y-100320912D01*
X94964712Y-100321790D01*
X95095814Y-100409390D01*
X95095827Y-100409397D01*
X95230499Y-100465179D01*
X95241503Y-100469737D01*
X95393644Y-100500000D01*
X95396153Y-100500499D01*
X95396156Y-100500500D01*
X95396158Y-100500500D01*
X95553842Y-100500500D01*
X95584814Y-100494339D01*
X95654404Y-100500565D01*
X95709582Y-100543427D01*
X95730623Y-100591764D01*
X95750261Y-100690491D01*
X95750264Y-100690501D01*
X95810602Y-100836172D01*
X95810609Y-100836185D01*
X95898210Y-100967288D01*
X95902076Y-100971999D01*
X95899920Y-100973767D01*
X95927670Y-101024587D01*
X95922686Y-101094279D01*
X95909606Y-101119836D01*
X95853109Y-101204388D01*
X95853102Y-101204401D01*
X95792764Y-101350072D01*
X95792761Y-101350084D01*
X95762000Y-101504727D01*
X95762000Y-101662420D01*
X95792761Y-101817063D01*
X95792764Y-101817075D01*
X95853102Y-101962746D01*
X95853109Y-101962759D01*
X95927959Y-102074779D01*
X95935619Y-102086243D01*
X95941102Y-102094448D01*
X95961980Y-102161125D01*
X95962000Y-102163339D01*
X95962000Y-102309690D01*
X95961999Y-102309708D01*
X95961999Y-102475414D01*
X95961998Y-102475414D01*
X96002923Y-102628146D01*
X96002924Y-102628147D01*
X96025689Y-102667577D01*
X96038177Y-102689207D01*
X96054650Y-102757108D01*
X96031797Y-102823134D01*
X96018472Y-102838888D01*
X95958577Y-102898783D01*
X95870976Y-103029886D01*
X95870969Y-103029899D01*
X95810631Y-103175570D01*
X95810628Y-103175580D01*
X95793792Y-103260220D01*
X95761407Y-103322131D01*
X95700691Y-103356705D01*
X95630921Y-103352964D01*
X95584494Y-103323709D01*
X95538997Y-103278212D01*
X95538993Y-103278209D01*
X95407890Y-103190608D01*
X95407877Y-103190601D01*
X95262206Y-103130263D01*
X95262194Y-103130260D01*
X95107550Y-103099499D01*
X95107547Y-103099499D01*
X94949863Y-103099499D01*
X94949860Y-103099499D01*
X94795215Y-103130260D01*
X94795203Y-103130263D01*
X94666559Y-103183549D01*
X94597090Y-103191018D01*
X94571657Y-103183549D01*
X94456554Y-103135873D01*
X94456546Y-103135871D01*
X94301902Y-103105110D01*
X94301899Y-103105110D01*
X94144215Y-103105110D01*
X94144212Y-103105110D01*
X93989567Y-103135871D01*
X93989555Y-103135874D01*
X93839300Y-103198111D01*
X93769830Y-103205580D01*
X93733394Y-103192908D01*
X93729086Y-103190605D01*
X93583413Y-103130266D01*
X93583401Y-103130263D01*
X93428757Y-103099502D01*
X93428754Y-103099502D01*
X93271070Y-103099502D01*
X93265008Y-103100099D01*
X93264914Y-103099154D01*
X93234014Y-103100163D01*
X93228970Y-103099499D01*
X93228967Y-103099499D01*
X93070853Y-103099499D01*
X92956307Y-103130192D01*
X92918124Y-103140423D01*
X92781194Y-103219481D01*
X92781190Y-103219484D01*
X92743885Y-103256789D01*
X92682562Y-103290274D01*
X92612870Y-103285288D01*
X92568524Y-103256788D01*
X91750090Y-102438355D01*
X91750088Y-102438352D01*
X91653401Y-102341665D01*
X91619916Y-102280342D01*
X91624900Y-102210650D01*
X91666772Y-102154717D01*
X91716887Y-102132368D01*
X91800497Y-102115737D01*
X91946179Y-102055394D01*
X92077289Y-101967789D01*
X92188789Y-101856289D01*
X92276394Y-101725179D01*
X92336737Y-101579497D01*
X92367500Y-101424842D01*
X92367500Y-101267158D01*
X92367500Y-101267155D01*
X92367499Y-101267153D01*
X92355017Y-101204401D01*
X92336737Y-101112503D01*
X92327078Y-101089186D01*
X92319610Y-101019717D01*
X92350885Y-100957238D01*
X92372750Y-100938632D01*
X92445221Y-100890208D01*
X92472787Y-100871789D01*
X92584287Y-100760289D01*
X92671892Y-100629179D01*
X92732235Y-100483497D01*
X92762998Y-100328842D01*
X92762998Y-100324500D01*
X92782683Y-100257461D01*
X92835487Y-100211706D01*
X92886998Y-100200500D01*
X94792060Y-100200500D01*
X94859099Y-100220185D01*
G37*
%TD.AperFunction*%
%TA.AperFunction,Conductor*%
G36*
X86587586Y-102051189D02*
G01*
X86620543Y-102074779D01*
X87093583Y-102547819D01*
X87127068Y-102609142D01*
X87122084Y-102678834D01*
X87080212Y-102734767D01*
X87014748Y-102759184D01*
X87005902Y-102759500D01*
X87000098Y-102759500D01*
X86933059Y-102739815D01*
X86912417Y-102723181D01*
X86443757Y-102254522D01*
X86410272Y-102193199D01*
X86413510Y-102128514D01*
X86414936Y-102124126D01*
X86454379Y-102066458D01*
X86518740Y-102039267D01*
X86587586Y-102051189D01*
G37*
%TD.AperFunction*%
%TA.AperFunction,Conductor*%
G36*
X87789937Y-97606954D02*
G01*
X87804500Y-97619422D01*
X87881123Y-97696045D01*
X88636957Y-98451879D01*
X88670441Y-98513200D01*
X88665457Y-98582891D01*
X88636957Y-98627239D01*
X88579884Y-98684312D01*
X88575101Y-98690479D01*
X88573331Y-98689106D01*
X88530555Y-98729039D01*
X88473749Y-98739365D01*
X88470000Y-98742653D01*
X88470000Y-98900632D01*
X88465076Y-98935227D01*
X88452357Y-98979002D01*
X88452356Y-98979008D01*
X88449500Y-99015302D01*
X88449500Y-99484697D01*
X88452356Y-99520991D01*
X88452357Y-99520994D01*
X88465076Y-99564771D01*
X88470000Y-99599367D01*
X88470000Y-99773876D01*
X88483792Y-99795620D01*
X88483378Y-99865488D01*
X88445255Y-99924041D01*
X88433502Y-99932949D01*
X88389717Y-99962205D01*
X88367101Y-99984821D01*
X88305777Y-100018305D01*
X88236085Y-100013319D01*
X88191742Y-99984821D01*
X88106317Y-99899396D01*
X88072834Y-99838073D01*
X88070000Y-99811716D01*
X88070000Y-98742653D01*
X88069999Y-98742653D01*
X88040648Y-98746518D01*
X88040644Y-98746519D01*
X87922144Y-98801777D01*
X87920953Y-98799223D01*
X87870414Y-98816266D01*
X87802647Y-98799253D01*
X87754836Y-98748304D01*
X87741500Y-98692363D01*
X87741500Y-98244373D01*
X87741501Y-98244360D01*
X87741501Y-98076259D01*
X87741501Y-98076257D01*
X87700577Y-97923529D01*
X87663712Y-97859677D01*
X87663712Y-97859676D01*
X87621525Y-97786606D01*
X87621523Y-97786603D01*
X87621520Y-97786598D01*
X87621515Y-97786593D01*
X87618448Y-97782596D01*
X87593250Y-97717428D01*
X87607284Y-97648982D01*
X87656094Y-97598990D01*
X87724185Y-97583322D01*
X87789937Y-97606954D01*
G37*
%TD.AperFunction*%
%TA.AperFunction,Conductor*%
G36*
X101625972Y-78170185D02*
G01*
X101671727Y-78222989D01*
X101681671Y-78292147D01*
X101669418Y-78330794D01*
X101638445Y-78391582D01*
X101572753Y-78593760D01*
X101539500Y-78803713D01*
X101539500Y-79016287D01*
X101546955Y-79063355D01*
X101572754Y-79226244D01*
X101572754Y-79226247D01*
X101586491Y-79268523D01*
X101588486Y-79338364D01*
X101556241Y-79394522D01*
X100088286Y-80862478D01*
X99976481Y-80974282D01*
X99976477Y-80974287D01*
X99961334Y-81000518D01*
X99961333Y-81000520D01*
X99897423Y-81111215D01*
X99856499Y-81263943D01*
X99856499Y-81263945D01*
X99856499Y-81432046D01*
X99856500Y-81432059D01*
X99856500Y-96181727D01*
X99836815Y-96248766D01*
X99784011Y-96294521D01*
X99714853Y-96304465D01*
X99651297Y-96275440D01*
X99620118Y-96234132D01*
X99581807Y-96151975D01*
X99497024Y-96067192D01*
X99388355Y-96016519D01*
X99388351Y-96016518D01*
X99359000Y-96012653D01*
X99359000Y-97036000D01*
X99356545Y-97044360D01*
X99357832Y-97052979D01*
X99346851Y-97077373D01*
X99339315Y-97103039D01*
X99332730Y-97108744D01*
X99329153Y-97116692D01*
X99312435Y-97127564D01*
X99280000Y-97160000D01*
X99280000Y-97300000D01*
X99560000Y-97300000D01*
X99560000Y-97290166D01*
X99559998Y-97290149D01*
X99553481Y-97240645D01*
X99502806Y-97131974D01*
X99496586Y-97123090D01*
X99499286Y-97121199D01*
X99474528Y-97075858D01*
X99479512Y-97006166D01*
X99508013Y-96961819D01*
X99581808Y-96888023D01*
X99620118Y-96805868D01*
X99666290Y-96753428D01*
X99733484Y-96734276D01*
X99800365Y-96754492D01*
X99845699Y-96807657D01*
X99856500Y-96858272D01*
X99856500Y-98271035D01*
X99847591Y-98301373D01*
X99840377Y-98332179D01*
X99837395Y-98336096D01*
X99836815Y-98338074D01*
X99834101Y-98340425D01*
X99820183Y-98358715D01*
X99790219Y-98388680D01*
X99728896Y-98422166D01*
X99702536Y-98425000D01*
X99611500Y-98425000D01*
X99544461Y-98405315D01*
X99498706Y-98352511D01*
X99487500Y-98301000D01*
X99487500Y-98190317D01*
X99487499Y-98190302D01*
X99484643Y-98154008D01*
X99484642Y-98154002D01*
X99471924Y-98110227D01*
X99468507Y-98086224D01*
X99467191Y-98082516D01*
X99467681Y-98080421D01*
X99467000Y-98075632D01*
X99467000Y-97900505D01*
X99486685Y-97833466D01*
X99524375Y-97795924D01*
X99541522Y-97784999D01*
X99553481Y-97759352D01*
X99559998Y-97709850D01*
X99560000Y-97709833D01*
X99560000Y-97700000D01*
X99204000Y-97700000D01*
X99136961Y-97680315D01*
X99091206Y-97627511D01*
X99080000Y-97576000D01*
X99080000Y-97500000D01*
X99024500Y-97500000D01*
X98957461Y-97480315D01*
X98911706Y-97427511D01*
X98900500Y-97376000D01*
X98900500Y-97265317D01*
X98900499Y-97265302D01*
X98897643Y-97229008D01*
X98897642Y-97229002D01*
X98884924Y-97185227D01*
X98880000Y-97150632D01*
X98880000Y-97067388D01*
X98897269Y-97004266D01*
X98931492Y-96946398D01*
X98931494Y-96946395D01*
X98946727Y-96893961D01*
X98959000Y-96873210D01*
X98959000Y-96869367D01*
X98963924Y-96834771D01*
X98969061Y-96817090D01*
X98976643Y-96790993D01*
X98979500Y-96754690D01*
X98979500Y-96285310D01*
X98976643Y-96249007D01*
X98972321Y-96234132D01*
X98963924Y-96205227D01*
X98959000Y-96170632D01*
X98959000Y-96012653D01*
X98954498Y-96008706D01*
X98901247Y-96000402D01*
X98855159Y-95959496D01*
X98853897Y-95960476D01*
X98849112Y-95954307D01*
X98733044Y-95838239D01*
X98699559Y-95776916D01*
X98696725Y-95750558D01*
X98696725Y-95651114D01*
X98696724Y-95651112D01*
X98684616Y-95590242D01*
X98665962Y-95496462D01*
X98648491Y-95454283D01*
X98605622Y-95350786D01*
X98605615Y-95350773D01*
X98518014Y-95219670D01*
X98518011Y-95219666D01*
X98406517Y-95108172D01*
X98406513Y-95108169D01*
X98275410Y-95020568D01*
X98275397Y-95020561D01*
X98129726Y-94960223D01*
X98129714Y-94960220D01*
X97975070Y-94929459D01*
X97975067Y-94929459D01*
X97817383Y-94929459D01*
X97817380Y-94929459D01*
X97662735Y-94960220D01*
X97662723Y-94960223D01*
X97517052Y-95020561D01*
X97517038Y-95020569D01*
X97506725Y-95027460D01*
X97440047Y-95048336D01*
X97372667Y-95029850D01*
X97325979Y-94977870D01*
X97314804Y-94908899D01*
X97342692Y-94844836D01*
X97350136Y-94836695D01*
X97446614Y-94740217D01*
X97507936Y-94706735D01*
X97534293Y-94703901D01*
X97632052Y-94703901D01*
X97632055Y-94703901D01*
X97784783Y-94662977D01*
X97856271Y-94621703D01*
X97921714Y-94583920D01*
X98033518Y-94472116D01*
X98033518Y-94472114D01*
X98043722Y-94461911D01*
X98043726Y-94461906D01*
X99059306Y-93446326D01*
X99059311Y-93446322D01*
X99069514Y-93436118D01*
X99069516Y-93436118D01*
X99181320Y-93324314D01*
X99253636Y-93199058D01*
X99260377Y-93187383D01*
X99301300Y-93034655D01*
X99301300Y-92876541D01*
X99301300Y-91588261D01*
X99301301Y-91588248D01*
X99301301Y-91420147D01*
X99301301Y-91420145D01*
X99260377Y-91267417D01*
X99207370Y-91175607D01*
X99181320Y-91130486D01*
X99069516Y-91018682D01*
X99069515Y-91018681D01*
X99065185Y-91014351D01*
X99065174Y-91014341D01*
X98023100Y-89972267D01*
X97989615Y-89910944D01*
X97986781Y-89884586D01*
X97986781Y-89841773D01*
X97959365Y-89703948D01*
X97959364Y-89703947D01*
X97959364Y-89703943D01*
X97911510Y-89588412D01*
X97905587Y-89574112D01*
X97905583Y-89574105D01*
X97849078Y-89489539D01*
X97844803Y-89482664D01*
X97833723Y-89463472D01*
X97488967Y-89118716D01*
X97460474Y-89090222D01*
X97460474Y-89090221D01*
X97460457Y-89090206D01*
X97457368Y-89087116D01*
X97453572Y-89084924D01*
X97438168Y-89076031D01*
X97431293Y-89071755D01*
X97346733Y-89015253D01*
X97216897Y-88961474D01*
X97216889Y-88961472D01*
X97079064Y-88934057D01*
X97079060Y-88934057D01*
X97036252Y-88934057D01*
X96969213Y-88914372D01*
X96948571Y-88897738D01*
X95391897Y-87341064D01*
X95358412Y-87279741D01*
X95355578Y-87253383D01*
X95355578Y-84877939D01*
X95375263Y-84810900D01*
X95428067Y-84765145D01*
X95497225Y-84755201D01*
X95560781Y-84784226D01*
X95567259Y-84790258D01*
X95577000Y-84799999D01*
X95601256Y-84799999D01*
X95650038Y-84793577D01*
X95650045Y-84793575D01*
X95757112Y-84743648D01*
X95840648Y-84660112D01*
X95890574Y-84553046D01*
X95890576Y-84553041D01*
X95893610Y-84530000D01*
X95577000Y-84530000D01*
X95567259Y-84539741D01*
X95505936Y-84573226D01*
X95436244Y-84568242D01*
X95380311Y-84526370D01*
X95355894Y-84460906D01*
X95355578Y-84452060D01*
X95355578Y-84402784D01*
X95375263Y-84335745D01*
X95377000Y-84333589D01*
X95377000Y-84254000D01*
X95396685Y-84186961D01*
X95449489Y-84141206D01*
X95501000Y-84130000D01*
X95893610Y-84130000D01*
X95890577Y-84106960D01*
X95888188Y-84098762D01*
X95888328Y-84028893D01*
X95926220Y-83970191D01*
X95944111Y-83957336D01*
X95954598Y-83951135D01*
X96068135Y-83837598D01*
X96149869Y-83699393D01*
X96194665Y-83545204D01*
X96197500Y-83509181D01*
X96197499Y-83110820D01*
X96194665Y-83074796D01*
X96152335Y-82929095D01*
X96152534Y-82859226D01*
X96190476Y-82800556D01*
X96254115Y-82771712D01*
X96271411Y-82770500D01*
X96665686Y-82770500D01*
X96665694Y-82770500D01*
X96702569Y-82767598D01*
X96702571Y-82767597D01*
X96702573Y-82767597D01*
X96744191Y-82755505D01*
X96860398Y-82721744D01*
X97001865Y-82638081D01*
X97118081Y-82521865D01*
X97201744Y-82380398D01*
X97206923Y-82362570D01*
X97244529Y-82303685D01*
X97308002Y-82274478D01*
X97377189Y-82284224D01*
X97430123Y-82329827D01*
X97449999Y-82396810D01*
X97450000Y-82397165D01*
X97450000Y-82467552D01*
X97501248Y-82460087D01*
X97606191Y-82408784D01*
X97688787Y-82326188D01*
X97740087Y-82221251D01*
X97740088Y-82221248D01*
X97749999Y-82153219D01*
X97749999Y-81873008D01*
X97769683Y-81805969D01*
X97822487Y-81760214D01*
X97891646Y-81750270D01*
X97942889Y-81769906D01*
X97988415Y-81800325D01*
X97988429Y-81800333D01*
X98115818Y-81853099D01*
X98119999Y-81853930D01*
X98120000Y-81853929D01*
X98120000Y-81404265D01*
X98135795Y-81420060D01*
X98204204Y-81459556D01*
X98280504Y-81480000D01*
X98359496Y-81480000D01*
X98435796Y-81459556D01*
X98504205Y-81420060D01*
X98520000Y-81404265D01*
X98520000Y-81853930D01*
X98524181Y-81853099D01*
X98651570Y-81800333D01*
X98651579Y-81800328D01*
X98766226Y-81723724D01*
X98863724Y-81626226D01*
X98940328Y-81511579D01*
X98940335Y-81511566D01*
X98993097Y-81384186D01*
X98993100Y-81384176D01*
X99020000Y-81248946D01*
X99020000Y-80830000D01*
X98620000Y-80830000D01*
X98620000Y-80430000D01*
X99020000Y-80430000D01*
X99020000Y-80011053D01*
X98993100Y-79875823D01*
X98993097Y-79875813D01*
X98940335Y-79748433D01*
X98940328Y-79748420D01*
X98863724Y-79633773D01*
X98766226Y-79536275D01*
X98651579Y-79459671D01*
X98651566Y-79459664D01*
X98524185Y-79406902D01*
X98520000Y-79406069D01*
X98520000Y-79855735D01*
X98504205Y-79839940D01*
X98435796Y-79800444D01*
X98359496Y-79780000D01*
X98280504Y-79780000D01*
X98204204Y-79800444D01*
X98135795Y-79839940D01*
X98120000Y-79855735D01*
X98120000Y-79406069D01*
X98115814Y-79406902D01*
X97988433Y-79459664D01*
X97988420Y-79459671D01*
X97873773Y-79536275D01*
X97776275Y-79633773D01*
X97699671Y-79748420D01*
X97699666Y-79748430D01*
X97650470Y-79867199D01*
X97606628Y-79921603D01*
X97540334Y-79943667D01*
X97472635Y-79926387D01*
X97428522Y-79881746D01*
X97404385Y-79839940D01*
X97350515Y-79746635D01*
X97331941Y-79728061D01*
X97298456Y-79666738D01*
X97303440Y-79597046D01*
X97331941Y-79552699D01*
X97990280Y-78894361D01*
X98697822Y-78186819D01*
X98759145Y-78153334D01*
X98785503Y-78150500D01*
X101558933Y-78150500D01*
X101625972Y-78170185D01*
G37*
%TD.AperFunction*%
%TA.AperFunction,Conductor*%
G36*
X89443039Y-95995184D02*
G01*
X89488794Y-96047988D01*
X89500000Y-96099499D01*
X89500000Y-96175000D01*
X89677056Y-96175000D01*
X89744095Y-96194685D01*
X89789850Y-96247489D01*
X89796714Y-96271389D01*
X89797397Y-96271207D01*
X89799500Y-96279055D01*
X89799500Y-96279057D01*
X89826619Y-96380266D01*
X89840423Y-96431783D01*
X89840426Y-96431790D01*
X89919475Y-96568709D01*
X89919479Y-96568714D01*
X89919480Y-96568716D01*
X90031284Y-96680520D01*
X90031286Y-96680521D01*
X90031290Y-96680524D01*
X90168209Y-96759573D01*
X90168216Y-96759577D01*
X90247144Y-96780725D01*
X90306804Y-96817090D01*
X90337333Y-96879937D01*
X90329038Y-96949313D01*
X90284553Y-97003190D01*
X90218001Y-97024465D01*
X90215050Y-97024500D01*
X89525098Y-97024500D01*
X89458059Y-97004815D01*
X89437417Y-96988181D01*
X88829502Y-96380266D01*
X88796017Y-96318943D01*
X88801001Y-96249251D01*
X88842873Y-96193318D01*
X88908337Y-96168901D01*
X88941377Y-96170968D01*
X88961645Y-96175000D01*
X89250000Y-96175000D01*
X89250000Y-96099499D01*
X89269685Y-96032460D01*
X89322489Y-95986705D01*
X89373998Y-95975499D01*
X89376001Y-95975499D01*
X89443039Y-95995184D01*
G37*
%TD.AperFunction*%
%TA.AperFunction,Conductor*%
G36*
X103760297Y-94737455D02*
G01*
X103772398Y-94719347D01*
X103826010Y-94674542D01*
X103895335Y-94665835D01*
X103958362Y-94695989D01*
X103995082Y-94755432D01*
X103999500Y-94788238D01*
X103999500Y-95590242D01*
X103979815Y-95657281D01*
X103927011Y-95703036D01*
X103857853Y-95712980D01*
X103794297Y-95683955D01*
X103787819Y-95677923D01*
X103769786Y-95659890D01*
X103597820Y-95534951D01*
X103408414Y-95438444D01*
X103408413Y-95438443D01*
X103408412Y-95438443D01*
X103232003Y-95381124D01*
X103174329Y-95341687D01*
X103147131Y-95277329D01*
X103159046Y-95208482D01*
X103206290Y-95157007D01*
X103222870Y-95148633D01*
X103387359Y-95080499D01*
X103477456Y-95020298D01*
X103075177Y-94618019D01*
X103082993Y-94615925D01*
X103197007Y-94550099D01*
X103290099Y-94457007D01*
X103355925Y-94342993D01*
X103358019Y-94335177D01*
X103760297Y-94737455D01*
G37*
%TD.AperFunction*%
%TA.AperFunction,Conductor*%
G36*
X84644075Y-94342993D02*
G01*
X84709901Y-94457007D01*
X84802993Y-94550099D01*
X84917007Y-94615925D01*
X84924821Y-94618018D01*
X84522542Y-95020298D01*
X84612640Y-95080499D01*
X84777129Y-95148633D01*
X84831532Y-95192474D01*
X84853597Y-95258768D01*
X84836318Y-95326468D01*
X84785180Y-95374078D01*
X84767994Y-95381125D01*
X84591585Y-95438444D01*
X84402179Y-95534951D01*
X84230213Y-95659890D01*
X84230209Y-95659894D01*
X84212181Y-95677923D01*
X84150858Y-95711408D01*
X84081166Y-95706424D01*
X84025233Y-95664552D01*
X84000816Y-95599088D01*
X84000500Y-95590242D01*
X84000500Y-94788239D01*
X84020185Y-94721200D01*
X84072989Y-94675445D01*
X84142147Y-94665501D01*
X84205703Y-94694526D01*
X84227602Y-94719348D01*
X84239701Y-94737455D01*
X84641980Y-94335176D01*
X84644075Y-94342993D01*
G37*
%TD.AperFunction*%
%TA.AperFunction,Conductor*%
G36*
X84205703Y-92616045D02*
G01*
X84212181Y-92622077D01*
X84230213Y-92640109D01*
X84402179Y-92765048D01*
X84402181Y-92765049D01*
X84402184Y-92765051D01*
X84591588Y-92861557D01*
X84767996Y-92918876D01*
X84825669Y-92958311D01*
X84852868Y-93022670D01*
X84840954Y-93091516D01*
X84793710Y-93142992D01*
X84777130Y-93151366D01*
X84612638Y-93219501D01*
X84522543Y-93279700D01*
X84522543Y-93279701D01*
X84924822Y-93681980D01*
X84917007Y-93684075D01*
X84802993Y-93749901D01*
X84709901Y-93842993D01*
X84644075Y-93957007D01*
X84641980Y-93964822D01*
X84239701Y-93562543D01*
X84239700Y-93562543D01*
X84227602Y-93580650D01*
X84173990Y-93625455D01*
X84104665Y-93634162D01*
X84041638Y-93604008D01*
X84004918Y-93544565D01*
X84000500Y-93511759D01*
X84000500Y-92709758D01*
X84020185Y-92642719D01*
X84072989Y-92596964D01*
X84142147Y-92587020D01*
X84205703Y-92616045D01*
G37*
%TD.AperFunction*%
%TA.AperFunction,Conductor*%
G36*
X103918834Y-92593576D02*
G01*
X103974767Y-92635448D01*
X103999184Y-92700912D01*
X103999500Y-92709758D01*
X103999500Y-93511760D01*
X103979815Y-93578799D01*
X103927011Y-93624554D01*
X103857853Y-93634498D01*
X103794297Y-93605473D01*
X103772398Y-93580651D01*
X103760298Y-93562542D01*
X103358018Y-93964821D01*
X103355925Y-93957007D01*
X103290099Y-93842993D01*
X103197007Y-93749901D01*
X103082993Y-93684075D01*
X103075175Y-93681980D01*
X103477455Y-93279701D01*
X103477455Y-93279700D01*
X103387367Y-93219505D01*
X103387358Y-93219500D01*
X103222870Y-93151366D01*
X103168466Y-93107525D01*
X103146402Y-93041230D01*
X103163682Y-92973531D01*
X103214819Y-92925921D01*
X103231988Y-92918880D01*
X103408412Y-92861557D01*
X103597816Y-92765051D01*
X103676196Y-92708105D01*
X103769786Y-92640109D01*
X103769788Y-92640106D01*
X103769792Y-92640104D01*
X103787819Y-92622077D01*
X103849142Y-92588592D01*
X103918834Y-92593576D01*
G37*
%TD.AperFunction*%
%TA.AperFunction,Conductor*%
G36*
X92689634Y-89856116D02*
G01*
X92745567Y-89897988D01*
X92769984Y-89963452D01*
X92770300Y-89972298D01*
X92770300Y-91837938D01*
X92750615Y-91904977D01*
X92697811Y-91950732D01*
X92628653Y-91960676D01*
X92565097Y-91931651D01*
X92560961Y-91927800D01*
X92550967Y-91927800D01*
X92550949Y-91927801D01*
X92501445Y-91934318D01*
X92392775Y-91984992D01*
X92307992Y-92069775D01*
X92257319Y-92178444D01*
X92257318Y-92178448D01*
X92253453Y-92207799D01*
X92253454Y-92207800D01*
X92562613Y-92207800D01*
X92619942Y-92176496D01*
X92689634Y-92181480D01*
X92745567Y-92223352D01*
X92769984Y-92288816D01*
X92770300Y-92297662D01*
X92770300Y-92346938D01*
X92760800Y-92379291D01*
X92760800Y-92463300D01*
X92741115Y-92530339D01*
X92688311Y-92576094D01*
X92636800Y-92587300D01*
X92526102Y-92587300D01*
X92489808Y-92590156D01*
X92489805Y-92590157D01*
X92466377Y-92596964D01*
X92446027Y-92602876D01*
X92411433Y-92607800D01*
X92253454Y-92607800D01*
X92249506Y-92612301D01*
X92241202Y-92665553D01*
X92200299Y-92711637D01*
X92201279Y-92712901D01*
X92195112Y-92717684D01*
X92080684Y-92832111D01*
X92080681Y-92832115D01*
X91998305Y-92971406D01*
X91998304Y-92971409D01*
X91953157Y-93126802D01*
X91953156Y-93126808D01*
X91950300Y-93163102D01*
X91950300Y-93572482D01*
X91950301Y-93572507D01*
X91951738Y-93590776D01*
X91937371Y-93659153D01*
X91888318Y-93708908D01*
X91828124Y-93724500D01*
X91800597Y-93724500D01*
X91690536Y-93738988D01*
X91690527Y-93738991D01*
X91553574Y-93795719D01*
X91553571Y-93795720D01*
X91553571Y-93795721D01*
X91511122Y-93828293D01*
X91435962Y-93885965D01*
X91417929Y-93909467D01*
X91361500Y-93950668D01*
X91291754Y-93954821D01*
X91245244Y-93933245D01*
X91228749Y-93920897D01*
X91142331Y-93856204D01*
X91142330Y-93856203D01*
X91142328Y-93856202D01*
X91007486Y-93805910D01*
X91007485Y-93805909D01*
X91007483Y-93805909D01*
X90947873Y-93799500D01*
X90947863Y-93799500D01*
X90652130Y-93799500D01*
X90652123Y-93799501D01*
X90592516Y-93805908D01*
X90457671Y-93856202D01*
X90457668Y-93856204D01*
X90354755Y-93933245D01*
X90289290Y-93957662D01*
X90221017Y-93942810D01*
X90182070Y-93909467D01*
X90164036Y-93885964D01*
X90046429Y-93795721D01*
X90046425Y-93795719D01*
X89909472Y-93738991D01*
X89909470Y-93738990D01*
X89799410Y-93724501D01*
X89799407Y-93724500D01*
X89799401Y-93724500D01*
X89799394Y-93724500D01*
X89751500Y-93724500D01*
X89684461Y-93704815D01*
X89638706Y-93652011D01*
X89627500Y-93600500D01*
X89627500Y-93254595D01*
X89647185Y-93187556D01*
X89663814Y-93166918D01*
X89718135Y-93112598D01*
X89799869Y-92974393D01*
X89841206Y-92832111D01*
X89844664Y-92820208D01*
X89844665Y-92820202D01*
X89847499Y-92784188D01*
X89847500Y-92784181D01*
X89847499Y-92385820D01*
X89844665Y-92349796D01*
X89799869Y-92195607D01*
X89765869Y-92138117D01*
X89748688Y-92070398D01*
X89765869Y-92011882D01*
X89799869Y-91954393D01*
X89805702Y-91934318D01*
X89844664Y-91800208D01*
X89844664Y-91800206D01*
X89844665Y-91800204D01*
X89847500Y-91764181D01*
X89847499Y-91365820D01*
X89845807Y-91344318D01*
X89860172Y-91275944D01*
X89881738Y-91246918D01*
X90001472Y-91127185D01*
X90089478Y-90981606D01*
X90140086Y-90819196D01*
X90146500Y-90748616D01*
X90146500Y-90249500D01*
X90166185Y-90182461D01*
X90218989Y-90136706D01*
X90270500Y-90125500D01*
X91982331Y-90125500D01*
X91982347Y-90125501D01*
X91989943Y-90125501D01*
X92148054Y-90125501D01*
X92148057Y-90125501D01*
X92300785Y-90084577D01*
X92365097Y-90047446D01*
X92437716Y-90005520D01*
X92549520Y-89893716D01*
X92549520Y-89893715D01*
X92558619Y-89884617D01*
X92619942Y-89851132D01*
X92689634Y-89856116D01*
G37*
%TD.AperFunction*%
%TA.AperFunction,Conductor*%
G36*
X95092676Y-91920185D02*
G01*
X95113318Y-91936819D01*
X95419952Y-92243453D01*
X95453437Y-92304776D01*
X95448453Y-92374468D01*
X95419954Y-92418813D01*
X95406792Y-92431974D01*
X95356119Y-92540644D01*
X95356118Y-92540648D01*
X95352253Y-92569999D01*
X95352254Y-92570000D01*
X95695137Y-92570000D01*
X95721978Y-92577881D01*
X95749559Y-92582581D01*
X95757650Y-92588356D01*
X95762176Y-92589685D01*
X95766493Y-92594667D01*
X95782818Y-92606319D01*
X95823281Y-92646782D01*
X95856766Y-92708105D01*
X95859600Y-92734463D01*
X95859600Y-92825500D01*
X95839915Y-92892539D01*
X95787111Y-92938294D01*
X95735600Y-92949500D01*
X95624902Y-92949500D01*
X95588608Y-92952356D01*
X95588605Y-92952357D01*
X95568113Y-92958311D01*
X95544827Y-92965076D01*
X95528968Y-92967333D01*
X95524689Y-92969155D01*
X95520811Y-92968494D01*
X95510233Y-92970000D01*
X95352254Y-92970000D01*
X95348306Y-92974501D01*
X95340002Y-93027753D01*
X95293622Y-93080009D01*
X95290664Y-93081804D01*
X95290533Y-93081881D01*
X95222763Y-93098882D01*
X95175294Y-93087362D01*
X95153756Y-93077319D01*
X95153754Y-93077318D01*
X95104250Y-93070801D01*
X95104233Y-93070800D01*
X95094400Y-93070800D01*
X95094400Y-93325272D01*
X95089476Y-93359867D01*
X95059979Y-93461395D01*
X95022373Y-93520281D01*
X94958900Y-93549487D01*
X94940903Y-93550800D01*
X94818400Y-93550800D01*
X94751361Y-93531115D01*
X94705606Y-93478311D01*
X94694400Y-93426800D01*
X94694400Y-93070800D01*
X94684567Y-93070800D01*
X94684549Y-93070801D01*
X94635045Y-93077318D01*
X94526375Y-93127992D01*
X94441593Y-93212774D01*
X94402502Y-93296604D01*
X94356329Y-93349043D01*
X94289135Y-93368194D01*
X94231345Y-93350726D01*
X94230856Y-93351777D01*
X94223547Y-93348368D01*
X94222254Y-93347978D01*
X94221246Y-93347296D01*
X94112353Y-93296518D01*
X94112354Y-93296518D01*
X94062850Y-93290001D01*
X94062833Y-93290000D01*
X94053000Y-93290000D01*
X94053000Y-93646000D01*
X94033315Y-93713039D01*
X93980511Y-93758794D01*
X93929000Y-93770000D01*
X93814864Y-93770000D01*
X93747825Y-93750315D01*
X93727182Y-93733680D01*
X93689318Y-93695815D01*
X93655833Y-93634491D01*
X93653000Y-93608135D01*
X93653000Y-93376196D01*
X93672685Y-93309157D01*
X93689318Y-93288516D01*
X93698134Y-93279700D01*
X93739513Y-93238321D01*
X93739516Y-93238320D01*
X93851320Y-93126516D01*
X93901439Y-93039704D01*
X93930377Y-92989585D01*
X93971300Y-92836858D01*
X93971300Y-92678743D01*
X93971300Y-92024500D01*
X93990985Y-91957461D01*
X94043789Y-91911706D01*
X94095300Y-91900500D01*
X95025637Y-91900500D01*
X95092676Y-91920185D01*
G37*
%TD.AperFunction*%
%TA.AperFunction,Conductor*%
G36*
X89107961Y-75520185D02*
G01*
X89153716Y-75572989D01*
X89163660Y-75642147D01*
X89138949Y-75698238D01*
X89139658Y-75698712D01*
X89136965Y-75702741D01*
X89136783Y-75703156D01*
X89136274Y-75703775D01*
X89059671Y-75818420D01*
X89059664Y-75818433D01*
X89006902Y-75945813D01*
X89006899Y-75945823D01*
X88980000Y-76081053D01*
X88980000Y-76250000D01*
X89380000Y-76250000D01*
X89380000Y-76650000D01*
X88980000Y-76650000D01*
X88980000Y-76818946D01*
X88979999Y-76818946D01*
X89006899Y-76954176D01*
X89006902Y-76954186D01*
X89059664Y-77081566D01*
X89059671Y-77081579D01*
X89136275Y-77196226D01*
X89233773Y-77293724D01*
X89348420Y-77370328D01*
X89348429Y-77370333D01*
X89475818Y-77423099D01*
X89479999Y-77423930D01*
X89480000Y-77423929D01*
X89480000Y-76974265D01*
X89495795Y-76990060D01*
X89564204Y-77029556D01*
X89640504Y-77050000D01*
X89719496Y-77050000D01*
X89795796Y-77029556D01*
X89864205Y-76990060D01*
X89880000Y-76974265D01*
X89880000Y-77423930D01*
X89884181Y-77423099D01*
X90011570Y-77370333D01*
X90011579Y-77370328D01*
X90126226Y-77293724D01*
X90223724Y-77196226D01*
X90300328Y-77081579D01*
X90300335Y-77081566D01*
X90353097Y-76954186D01*
X90353100Y-76954176D01*
X90380000Y-76818946D01*
X90380000Y-76650000D01*
X89980000Y-76650000D01*
X89980000Y-76250000D01*
X90380000Y-76250000D01*
X90380000Y-76081053D01*
X90353100Y-75945823D01*
X90353097Y-75945813D01*
X90300335Y-75818433D01*
X90300328Y-75818420D01*
X90223725Y-75703775D01*
X90223217Y-75703156D01*
X90223052Y-75702768D01*
X90220342Y-75698712D01*
X90221111Y-75698197D01*
X90195910Y-75638843D01*
X90207708Y-75569977D01*
X90254865Y-75518421D01*
X90319078Y-75500500D01*
X97680922Y-75500500D01*
X97747961Y-75520185D01*
X97793716Y-75572989D01*
X97803660Y-75642147D01*
X97778949Y-75698238D01*
X97779658Y-75698712D01*
X97776965Y-75702741D01*
X97776783Y-75703156D01*
X97776274Y-75703775D01*
X97699671Y-75818420D01*
X97699664Y-75818433D01*
X97646902Y-75945813D01*
X97646899Y-75945823D01*
X97620000Y-76081053D01*
X97620000Y-76250000D01*
X98020000Y-76250000D01*
X98020000Y-76650000D01*
X97620000Y-76650000D01*
X97620000Y-76818946D01*
X97619999Y-76818946D01*
X97646899Y-76954176D01*
X97646902Y-76954186D01*
X97699664Y-77081566D01*
X97699671Y-77081579D01*
X97776275Y-77196226D01*
X97795428Y-77215379D01*
X97828913Y-77276702D01*
X97823929Y-77346394D01*
X97795428Y-77390741D01*
X95846286Y-79339884D01*
X95846273Y-79339892D01*
X95846275Y-79339894D01*
X95836578Y-79349589D01*
X95821090Y-79358043D01*
X95814059Y-79363112D01*
X95814057Y-79363113D01*
X95813574Y-79362147D01*
X95775252Y-79383068D01*
X95705560Y-79378076D01*
X95661225Y-79349580D01*
X95375000Y-79063355D01*
X95374998Y-79063352D01*
X95256127Y-78944481D01*
X95256126Y-78944480D01*
X95169314Y-78894360D01*
X95169314Y-78894359D01*
X95169310Y-78894358D01*
X95119195Y-78865423D01*
X94966467Y-78824499D01*
X94808353Y-78824499D01*
X94800757Y-78824499D01*
X94800741Y-78824500D01*
X92826263Y-78824500D01*
X92826247Y-78824499D01*
X92818651Y-78824499D01*
X92660537Y-78824499D01*
X92553181Y-78853265D01*
X92507804Y-78865424D01*
X92507803Y-78865425D01*
X92457690Y-78894359D01*
X92457689Y-78894360D01*
X92414283Y-78919420D01*
X92370879Y-78944479D01*
X92370876Y-78944481D01*
X91657300Y-79658058D01*
X91595977Y-79691543D01*
X91526285Y-79686559D01*
X91481938Y-79658058D01*
X91463367Y-79639487D01*
X91463365Y-79639485D01*
X91389859Y-79597046D01*
X91332136Y-79563719D01*
X91229711Y-79536275D01*
X91185766Y-79524500D01*
X91034234Y-79524500D01*
X90887863Y-79563719D01*
X90756635Y-79639485D01*
X90756632Y-79639487D01*
X90649487Y-79746632D01*
X90649485Y-79746635D01*
X90571477Y-79881747D01*
X90520909Y-79929962D01*
X90452302Y-79943184D01*
X90387437Y-79917216D01*
X90349529Y-79867199D01*
X90300333Y-79748429D01*
X90300328Y-79748420D01*
X90223724Y-79633773D01*
X90126226Y-79536275D01*
X90011579Y-79459671D01*
X90011566Y-79459664D01*
X89884185Y-79406902D01*
X89880000Y-79406069D01*
X89880000Y-79855735D01*
X89864205Y-79839940D01*
X89795796Y-79800444D01*
X89719496Y-79780000D01*
X89640504Y-79780000D01*
X89564204Y-79800444D01*
X89495795Y-79839940D01*
X89480000Y-79855735D01*
X89480000Y-79406069D01*
X89475814Y-79406902D01*
X89348433Y-79459664D01*
X89348420Y-79459671D01*
X89233773Y-79536275D01*
X89136275Y-79633773D01*
X89059671Y-79748420D01*
X89059664Y-79748433D01*
X89006902Y-79875813D01*
X89006899Y-79875823D01*
X88980000Y-80011053D01*
X88980000Y-80430000D01*
X89380000Y-80430000D01*
X89380000Y-80830000D01*
X88980000Y-80830000D01*
X88980000Y-81248946D01*
X88979999Y-81248946D01*
X89006899Y-81384176D01*
X89006902Y-81384186D01*
X89059664Y-81511566D01*
X89059671Y-81511579D01*
X89136275Y-81626226D01*
X89233773Y-81723724D01*
X89348420Y-81800328D01*
X89348429Y-81800333D01*
X89475818Y-81853099D01*
X89479999Y-81853930D01*
X89480000Y-81853929D01*
X89480000Y-81404265D01*
X89495795Y-81420060D01*
X89564204Y-81459556D01*
X89640504Y-81480000D01*
X89719496Y-81480000D01*
X89795796Y-81459556D01*
X89864205Y-81420060D01*
X89880000Y-81404265D01*
X89880000Y-81853930D01*
X89884181Y-81853099D01*
X90011570Y-81800333D01*
X90011578Y-81800328D01*
X90057109Y-81769906D01*
X90123786Y-81749028D01*
X90191166Y-81767512D01*
X90237857Y-81819491D01*
X90250000Y-81873008D01*
X90250000Y-82153217D01*
X90259912Y-82221249D01*
X90311215Y-82326191D01*
X90367712Y-82382688D01*
X90401197Y-82444011D01*
X90396213Y-82513703D01*
X90367712Y-82558050D01*
X90187582Y-82738181D01*
X90126259Y-82771666D01*
X90099901Y-82774500D01*
X89751662Y-82774500D01*
X89751644Y-82774501D01*
X89652292Y-82784650D01*
X89652289Y-82784651D01*
X89491305Y-82837996D01*
X89491294Y-82838001D01*
X89346959Y-82927029D01*
X89346955Y-82927032D01*
X89227031Y-83046956D01*
X89164759Y-83147915D01*
X89112811Y-83194639D01*
X89043848Y-83205860D01*
X88979766Y-83178017D01*
X88971540Y-83170498D01*
X88952928Y-83151886D01*
X88952923Y-83151883D01*
X88832965Y-83090760D01*
X88832966Y-83090760D01*
X88733456Y-83075000D01*
X88675000Y-83075000D01*
X88675000Y-84424999D01*
X88733449Y-84424999D01*
X88832967Y-84409237D01*
X88952923Y-84348116D01*
X88971538Y-84329502D01*
X89032861Y-84296016D01*
X89102552Y-84300999D01*
X89158487Y-84342870D01*
X89164759Y-84352085D01*
X89227029Y-84453040D01*
X89227032Y-84453044D01*
X89346955Y-84572967D01*
X89346959Y-84572970D01*
X89491294Y-84661998D01*
X89491297Y-84661999D01*
X89491303Y-84662003D01*
X89652292Y-84715349D01*
X89751655Y-84725500D01*
X90298344Y-84725499D01*
X90298352Y-84725498D01*
X90298355Y-84725498D01*
X90352760Y-84719940D01*
X90397708Y-84715349D01*
X90558697Y-84662003D01*
X90703044Y-84572968D01*
X90749546Y-84526465D01*
X90810867Y-84492981D01*
X90880558Y-84497965D01*
X90936492Y-84539836D01*
X90957000Y-84582051D01*
X90990423Y-84706785D01*
X91011706Y-84743648D01*
X91019358Y-84756900D01*
X91019359Y-84756904D01*
X91019360Y-84756904D01*
X91044240Y-84799999D01*
X91069479Y-84843714D01*
X91069481Y-84843717D01*
X91188349Y-84962585D01*
X91188355Y-84962590D01*
X91238181Y-85012416D01*
X91271666Y-85073739D01*
X91274500Y-85100097D01*
X91274500Y-85653201D01*
X91277401Y-85690067D01*
X91277402Y-85690073D01*
X91322791Y-85846300D01*
X91322686Y-85883244D01*
X91325000Y-85883244D01*
X91325000Y-86675000D01*
X91624999Y-86675000D01*
X91624999Y-86342891D01*
X91644684Y-86275852D01*
X91697488Y-86230097D01*
X91766646Y-86220153D01*
X91783594Y-86223815D01*
X91822426Y-86235097D01*
X91822429Y-86235097D01*
X91822431Y-86235098D01*
X91859306Y-86238000D01*
X92100500Y-86238000D01*
X92167539Y-86257685D01*
X92213294Y-86310489D01*
X92224500Y-86362000D01*
X92224500Y-87528201D01*
X92227401Y-87565067D01*
X92227402Y-87565073D01*
X92273254Y-87722893D01*
X92276353Y-87730054D01*
X92274077Y-87731038D01*
X92288260Y-87786935D01*
X92266101Y-87853198D01*
X92229443Y-87887872D01*
X92165956Y-87927031D01*
X92046031Y-88046956D01*
X91983759Y-88147915D01*
X91931811Y-88194639D01*
X91862848Y-88205860D01*
X91798766Y-88178017D01*
X91790540Y-88170498D01*
X91771928Y-88151886D01*
X91771923Y-88151883D01*
X91651965Y-88090760D01*
X91651966Y-88090760D01*
X91552456Y-88075000D01*
X91494000Y-88075000D01*
X91494000Y-88626000D01*
X91474315Y-88693039D01*
X91421511Y-88738794D01*
X91370000Y-88750000D01*
X91294000Y-88750000D01*
X91294000Y-88800500D01*
X91274315Y-88867539D01*
X91221511Y-88913294D01*
X91170000Y-88924500D01*
X87979409Y-88924500D01*
X87821295Y-88924500D01*
X87668567Y-88965423D01*
X87668566Y-88965423D01*
X87668564Y-88965424D01*
X87668561Y-88965425D01*
X87618448Y-88994359D01*
X87618447Y-88994360D01*
X87584795Y-89013789D01*
X87531637Y-89044479D01*
X87531634Y-89044481D01*
X86865481Y-89710634D01*
X86865480Y-89710636D01*
X86826694Y-89777816D01*
X86786423Y-89847567D01*
X86745499Y-90000295D01*
X86745499Y-90000297D01*
X86745499Y-90168398D01*
X86745500Y-90168411D01*
X86745500Y-92096903D01*
X86725815Y-92163942D01*
X86673011Y-92209697D01*
X86603853Y-92219641D01*
X86540297Y-92190616D01*
X86533819Y-92184584D01*
X86443757Y-92094522D01*
X86410272Y-92033199D01*
X86413507Y-91968523D01*
X86427246Y-91926243D01*
X86460500Y-91716287D01*
X86460500Y-91503713D01*
X86427246Y-91293757D01*
X86361557Y-91091588D01*
X86265051Y-90902184D01*
X86265049Y-90902181D01*
X86265048Y-90902179D01*
X86140109Y-90730213D01*
X85989786Y-90579890D01*
X85817820Y-90454951D01*
X85817115Y-90454591D01*
X85809054Y-90450485D01*
X85758259Y-90402512D01*
X85741463Y-90334692D01*
X85763999Y-90268556D01*
X85809054Y-90229515D01*
X85817816Y-90225051D01*
X85895793Y-90168398D01*
X85989786Y-90100109D01*
X85989788Y-90100106D01*
X85989792Y-90100104D01*
X86140104Y-89949792D01*
X86140106Y-89949788D01*
X86140109Y-89949786D01*
X86265048Y-89777820D01*
X86265050Y-89777817D01*
X86265051Y-89777816D01*
X86361557Y-89588412D01*
X86427246Y-89386243D01*
X86460500Y-89176287D01*
X86460500Y-88963713D01*
X86427246Y-88753757D01*
X86361557Y-88551588D01*
X86318224Y-88466543D01*
X90644000Y-88466543D01*
X90644000Y-88550000D01*
X91094000Y-88550000D01*
X91094000Y-88075000D01*
X91093999Y-88074999D01*
X91035551Y-88075000D01*
X90936032Y-88090762D01*
X90816076Y-88151883D01*
X90816071Y-88151886D01*
X90720886Y-88247071D01*
X90720883Y-88247076D01*
X90659760Y-88367033D01*
X90644000Y-88466543D01*
X86318224Y-88466543D01*
X86265051Y-88362184D01*
X86221834Y-88302700D01*
X86140109Y-88190213D01*
X85989786Y-88039890D01*
X85817820Y-87914951D01*
X85817115Y-87914591D01*
X85809054Y-87910485D01*
X85758259Y-87862512D01*
X85741463Y-87794692D01*
X85763999Y-87728556D01*
X85809054Y-87689515D01*
X85817816Y-87685051D01*
X85893921Y-87629758D01*
X85989786Y-87560109D01*
X85989788Y-87560106D01*
X85989792Y-87560104D01*
X86054179Y-87495717D01*
X90625001Y-87495717D01*
X90634912Y-87563749D01*
X90686215Y-87668691D01*
X90768811Y-87751287D01*
X90873748Y-87802587D01*
X90873751Y-87802588D01*
X90924999Y-87810055D01*
X90925000Y-87810054D01*
X90925000Y-87810052D01*
X91325000Y-87810052D01*
X91376248Y-87802587D01*
X91481191Y-87751284D01*
X91563787Y-87668688D01*
X91615087Y-87563751D01*
X91615088Y-87563748D01*
X91625000Y-87495719D01*
X91625000Y-87075000D01*
X91325000Y-87075000D01*
X91325000Y-87810052D01*
X90925000Y-87810052D01*
X90925000Y-87075000D01*
X90625001Y-87075000D01*
X90625001Y-87495717D01*
X86054179Y-87495717D01*
X86140104Y-87409792D01*
X86140106Y-87409788D01*
X86140109Y-87409786D01*
X86265048Y-87237820D01*
X86265047Y-87237820D01*
X86265051Y-87237816D01*
X86361557Y-87048412D01*
X86427246Y-86846243D01*
X86460500Y-86636287D01*
X86460500Y-86523479D01*
X87446001Y-86523479D01*
X87460835Y-86617149D01*
X87460837Y-86617155D01*
X87518356Y-86730041D01*
X87518363Y-86730050D01*
X87607949Y-86819636D01*
X87607953Y-86819639D01*
X87720855Y-86877166D01*
X87814514Y-86891999D01*
X88445999Y-86891999D01*
X88846000Y-86891999D01*
X89477479Y-86891999D01*
X89571149Y-86877164D01*
X89571155Y-86877162D01*
X89684041Y-86819643D01*
X89684050Y-86819636D01*
X89773636Y-86730050D01*
X89773639Y-86730046D01*
X89831166Y-86617144D01*
X89846000Y-86523486D01*
X89846000Y-86492000D01*
X88846000Y-86492000D01*
X88846000Y-86891999D01*
X88445999Y-86891999D01*
X88446000Y-86891998D01*
X88446000Y-86492000D01*
X87446001Y-86492000D01*
X87446001Y-86523479D01*
X86460500Y-86523479D01*
X86460500Y-86423713D01*
X86433664Y-86254280D01*
X90625000Y-86254280D01*
X90625000Y-86675000D01*
X90925000Y-86675000D01*
X90925000Y-85939945D01*
X90924999Y-85939944D01*
X90873751Y-85947411D01*
X90873748Y-85947412D01*
X90768811Y-85998712D01*
X90686212Y-86081311D01*
X90634912Y-86186248D01*
X90634911Y-86186251D01*
X90625000Y-86254280D01*
X86433664Y-86254280D01*
X86427246Y-86213757D01*
X86377454Y-86060513D01*
X87446000Y-86060513D01*
X87446000Y-86092000D01*
X88446000Y-86092000D01*
X88846000Y-86092000D01*
X89845999Y-86092000D01*
X89845999Y-86060520D01*
X89831164Y-85966850D01*
X89831162Y-85966844D01*
X89773643Y-85853958D01*
X89773636Y-85853949D01*
X89684050Y-85764363D01*
X89684046Y-85764360D01*
X89571144Y-85706833D01*
X89477486Y-85692000D01*
X88846000Y-85692000D01*
X88846000Y-86092000D01*
X88446000Y-86092000D01*
X88446000Y-85692000D01*
X87814520Y-85692000D01*
X87720850Y-85706835D01*
X87720844Y-85706837D01*
X87607958Y-85764356D01*
X87607949Y-85764363D01*
X87518363Y-85853949D01*
X87518360Y-85853953D01*
X87460833Y-85966855D01*
X87446000Y-86060513D01*
X86377454Y-86060513D01*
X86361557Y-86011588D01*
X86361555Y-86011585D01*
X86361555Y-86011583D01*
X86297381Y-85885635D01*
X86265051Y-85822184D01*
X86265049Y-85822181D01*
X86265048Y-85822179D01*
X86140109Y-85650213D01*
X85989786Y-85499890D01*
X85817820Y-85374951D01*
X85817115Y-85374591D01*
X85809054Y-85370485D01*
X85758259Y-85322512D01*
X85741463Y-85254692D01*
X85763999Y-85188556D01*
X85809054Y-85149515D01*
X85817816Y-85145051D01*
X85839789Y-85129086D01*
X85989786Y-85020109D01*
X85989788Y-85020106D01*
X85989792Y-85020104D01*
X86140104Y-84869792D01*
X86140106Y-84869788D01*
X86140109Y-84869786D01*
X86265048Y-84697820D01*
X86265047Y-84697820D01*
X86265051Y-84697816D01*
X86361557Y-84508412D01*
X86427246Y-84306243D01*
X86460500Y-84096287D01*
X86460500Y-84033449D01*
X87825001Y-84033449D01*
X87840762Y-84132967D01*
X87901883Y-84252923D01*
X87901886Y-84252928D01*
X87997071Y-84348113D01*
X87997076Y-84348116D01*
X88117034Y-84409239D01*
X88117033Y-84409239D01*
X88216544Y-84424999D01*
X88274999Y-84424998D01*
X88275000Y-84424998D01*
X88275000Y-83950000D01*
X87825001Y-83950000D01*
X87825001Y-84033449D01*
X86460500Y-84033449D01*
X86460500Y-83883713D01*
X86427246Y-83673757D01*
X86361557Y-83471588D01*
X86361555Y-83471585D01*
X86361555Y-83471583D01*
X86358987Y-83466543D01*
X87825000Y-83466543D01*
X87825000Y-83550000D01*
X88275000Y-83550000D01*
X88275000Y-83075000D01*
X88274999Y-83074999D01*
X88216551Y-83075000D01*
X88117032Y-83090762D01*
X87997076Y-83151883D01*
X87997071Y-83151886D01*
X87901886Y-83247071D01*
X87901883Y-83247076D01*
X87840760Y-83367033D01*
X87825000Y-83466543D01*
X86358987Y-83466543D01*
X86265048Y-83282179D01*
X86140109Y-83110213D01*
X85989786Y-82959890D01*
X85817820Y-82834951D01*
X85628414Y-82738444D01*
X85628413Y-82738443D01*
X85628412Y-82738443D01*
X85452003Y-82681124D01*
X85394329Y-82641687D01*
X85367131Y-82577329D01*
X85379046Y-82508482D01*
X85426290Y-82457007D01*
X85442870Y-82448633D01*
X85607359Y-82380499D01*
X85697456Y-82320298D01*
X85295177Y-81918019D01*
X85302993Y-81915925D01*
X85417007Y-81850099D01*
X85510099Y-81757007D01*
X85575925Y-81642993D01*
X85578019Y-81635177D01*
X85980298Y-82037456D01*
X86040499Y-81947359D01*
X86119649Y-81756274D01*
X86119651Y-81756266D01*
X86159999Y-81553420D01*
X86160000Y-81553417D01*
X86160000Y-81346583D01*
X86159999Y-81346579D01*
X86119651Y-81143733D01*
X86119649Y-81143725D01*
X86040499Y-80952640D01*
X85980298Y-80862543D01*
X85578019Y-81264821D01*
X85575925Y-81257007D01*
X85510099Y-81142993D01*
X85417007Y-81049901D01*
X85302993Y-80984075D01*
X85295177Y-80981980D01*
X85697455Y-80579701D01*
X85697455Y-80579700D01*
X85607367Y-80519505D01*
X85607358Y-80519500D01*
X85442870Y-80451366D01*
X85388466Y-80407525D01*
X85366402Y-80341230D01*
X85383682Y-80273531D01*
X85434819Y-80225921D01*
X85451988Y-80218880D01*
X85628412Y-80161557D01*
X85817816Y-80065051D01*
X85873996Y-80024234D01*
X85989786Y-79940109D01*
X85989788Y-79940106D01*
X85989792Y-79940104D01*
X86140104Y-79789792D01*
X86140106Y-79789788D01*
X86140109Y-79789786D01*
X86265048Y-79617820D01*
X86265047Y-79617820D01*
X86265051Y-79617816D01*
X86361557Y-79428412D01*
X86427246Y-79226243D01*
X86460500Y-79016287D01*
X86460500Y-78803713D01*
X86427246Y-78593757D01*
X86361557Y-78391588D01*
X86265051Y-78202184D01*
X86265049Y-78202181D01*
X86265048Y-78202179D01*
X86140109Y-78030213D01*
X86026569Y-77916673D01*
X85993084Y-77855350D01*
X85998068Y-77785658D01*
X86039940Y-77729725D01*
X86070915Y-77712810D01*
X86202331Y-77663796D01*
X86317546Y-77577546D01*
X86403796Y-77462331D01*
X86454091Y-77327483D01*
X86460500Y-77267873D01*
X86460499Y-76250000D01*
X86460499Y-75624500D01*
X86480183Y-75557461D01*
X86532987Y-75511706D01*
X86584499Y-75500500D01*
X89040922Y-75500500D01*
X89107961Y-75520185D01*
G37*
%TD.AperFunction*%
%TA.AperFunction,Conductor*%
G36*
X93361039Y-84222685D02*
G01*
X93406794Y-84275489D01*
X93418000Y-84327000D01*
X93418000Y-84672999D01*
X93442256Y-84672999D01*
X93491038Y-84666577D01*
X93491048Y-84666574D01*
X93528172Y-84649263D01*
X93597249Y-84638770D01*
X93661033Y-84667289D01*
X93699274Y-84725765D01*
X93704578Y-84761644D01*
X93704578Y-85627553D01*
X93684893Y-85694592D01*
X93632089Y-85740347D01*
X93562931Y-85750291D01*
X93517458Y-85734285D01*
X93435400Y-85685757D01*
X93435393Y-85685754D01*
X93277573Y-85639902D01*
X93277567Y-85639901D01*
X93240701Y-85637000D01*
X93240694Y-85637000D01*
X92999500Y-85637000D01*
X92932461Y-85617315D01*
X92886706Y-85564511D01*
X92875500Y-85513000D01*
X92875500Y-84796999D01*
X92895185Y-84729960D01*
X92947989Y-84684205D01*
X92999496Y-84672999D01*
X93018000Y-84672998D01*
X93018000Y-84327000D01*
X93037685Y-84259961D01*
X93090489Y-84214206D01*
X93142000Y-84203000D01*
X93294000Y-84203000D01*
X93361039Y-84222685D01*
G37*
%TD.AperFunction*%
%TA.AperFunction,Conductor*%
G36*
X101835614Y-80916132D02*
G01*
X101891548Y-80958003D01*
X101915965Y-81023468D01*
X101906843Y-81079766D01*
X101880349Y-81143730D01*
X101880348Y-81143733D01*
X101840000Y-81346579D01*
X101840000Y-81553420D01*
X101880348Y-81756266D01*
X101880350Y-81756274D01*
X101959500Y-81947358D01*
X101959505Y-81947367D01*
X102019701Y-82037455D01*
X102421980Y-81635176D01*
X102424075Y-81642993D01*
X102489901Y-81757007D01*
X102582993Y-81850099D01*
X102697007Y-81915925D01*
X102704822Y-81918019D01*
X102302542Y-82320298D01*
X102392640Y-82380499D01*
X102557129Y-82448633D01*
X102611532Y-82492474D01*
X102633597Y-82558768D01*
X102616318Y-82626468D01*
X102565180Y-82674078D01*
X102547994Y-82681125D01*
X102371585Y-82738444D01*
X102182179Y-82834951D01*
X102010213Y-82959890D01*
X101859890Y-83110213D01*
X101734951Y-83282179D01*
X101638444Y-83471585D01*
X101572753Y-83673760D01*
X101558318Y-83764902D01*
X101539500Y-83883713D01*
X101539500Y-84096287D01*
X101544840Y-84130000D01*
X101572754Y-84306244D01*
X101572754Y-84306247D01*
X101586491Y-84348523D01*
X101588486Y-84418364D01*
X101556241Y-84474522D01*
X101269181Y-84761583D01*
X101207858Y-84795068D01*
X101138167Y-84790084D01*
X101082233Y-84748213D01*
X101057816Y-84682748D01*
X101057500Y-84673902D01*
X101057500Y-81643096D01*
X101077185Y-81576057D01*
X101093814Y-81555420D01*
X101704603Y-80944631D01*
X101765923Y-80911148D01*
X101835614Y-80916132D01*
G37*
%TD.AperFunction*%
%TA.AperFunction,Conductor*%
G36*
X103760297Y-82037455D02*
G01*
X103772398Y-82019347D01*
X103826010Y-81974542D01*
X103895335Y-81965835D01*
X103958362Y-81995989D01*
X103995082Y-82055432D01*
X103999500Y-82088238D01*
X103999500Y-82890242D01*
X103979815Y-82957281D01*
X103927011Y-83003036D01*
X103857853Y-83012980D01*
X103794297Y-82983955D01*
X103787819Y-82977923D01*
X103769786Y-82959890D01*
X103597820Y-82834951D01*
X103408414Y-82738444D01*
X103408413Y-82738443D01*
X103408412Y-82738443D01*
X103232003Y-82681124D01*
X103174329Y-82641687D01*
X103147131Y-82577329D01*
X103159046Y-82508482D01*
X103206290Y-82457007D01*
X103222870Y-82448633D01*
X103387359Y-82380499D01*
X103477456Y-82320298D01*
X103075177Y-81918019D01*
X103082993Y-81915925D01*
X103197007Y-81850099D01*
X103290099Y-81757007D01*
X103355925Y-81642993D01*
X103358019Y-81635177D01*
X103760297Y-82037455D01*
G37*
%TD.AperFunction*%
%TA.AperFunction,Conductor*%
G36*
X84644075Y-81642993D02*
G01*
X84709901Y-81757007D01*
X84802993Y-81850099D01*
X84917007Y-81915925D01*
X84924822Y-81918019D01*
X84522542Y-82320298D01*
X84612640Y-82380499D01*
X84777129Y-82448633D01*
X84831532Y-82492474D01*
X84853597Y-82558768D01*
X84836318Y-82626468D01*
X84785180Y-82674078D01*
X84767994Y-82681125D01*
X84591585Y-82738444D01*
X84402179Y-82834951D01*
X84230213Y-82959890D01*
X84230209Y-82959894D01*
X84212181Y-82977923D01*
X84150858Y-83011408D01*
X84081166Y-83006424D01*
X84025233Y-82964552D01*
X84000816Y-82899088D01*
X84000500Y-82890242D01*
X84000500Y-82088239D01*
X84020185Y-82021200D01*
X84072989Y-81975445D01*
X84142147Y-81965501D01*
X84205703Y-81994526D01*
X84227602Y-82019348D01*
X84239701Y-82037455D01*
X84641980Y-81635176D01*
X84644075Y-81642993D01*
G37*
%TD.AperFunction*%
%TA.AperFunction,Conductor*%
G36*
X84205703Y-79916045D02*
G01*
X84212181Y-79922077D01*
X84230213Y-79940109D01*
X84402179Y-80065048D01*
X84402181Y-80065049D01*
X84402184Y-80065051D01*
X84591588Y-80161557D01*
X84767996Y-80218876D01*
X84825669Y-80258311D01*
X84852868Y-80322670D01*
X84840954Y-80391516D01*
X84793710Y-80442992D01*
X84777130Y-80451366D01*
X84612638Y-80519501D01*
X84522543Y-80579700D01*
X84522543Y-80579701D01*
X84924822Y-80981980D01*
X84917007Y-80984075D01*
X84802993Y-81049901D01*
X84709901Y-81142993D01*
X84644075Y-81257007D01*
X84641980Y-81264822D01*
X84239701Y-80862543D01*
X84239700Y-80862543D01*
X84227602Y-80880650D01*
X84173990Y-80925455D01*
X84104665Y-80934162D01*
X84041638Y-80904008D01*
X84004918Y-80844565D01*
X84000500Y-80811759D01*
X84000500Y-80009758D01*
X84020185Y-79942719D01*
X84072989Y-79896964D01*
X84142147Y-79887020D01*
X84205703Y-79916045D01*
G37*
%TD.AperFunction*%
%TA.AperFunction,Conductor*%
G36*
X103918834Y-79893576D02*
G01*
X103974767Y-79935448D01*
X103999184Y-80000912D01*
X103999500Y-80009758D01*
X103999500Y-80811760D01*
X103979815Y-80878799D01*
X103927011Y-80924554D01*
X103857853Y-80934498D01*
X103794297Y-80905473D01*
X103772398Y-80880651D01*
X103760298Y-80862542D01*
X103358018Y-81264821D01*
X103355925Y-81257007D01*
X103290099Y-81142993D01*
X103197007Y-81049901D01*
X103082993Y-80984075D01*
X103075176Y-80981980D01*
X103477455Y-80579701D01*
X103477455Y-80579700D01*
X103387367Y-80519505D01*
X103387358Y-80519500D01*
X103222870Y-80451366D01*
X103168466Y-80407525D01*
X103146402Y-80341230D01*
X103163682Y-80273531D01*
X103214819Y-80225921D01*
X103231988Y-80218880D01*
X103408412Y-80161557D01*
X103597816Y-80065051D01*
X103653996Y-80024234D01*
X103769786Y-79940109D01*
X103769788Y-79940106D01*
X103769792Y-79940104D01*
X103787819Y-79922077D01*
X103849142Y-79888592D01*
X103918834Y-79893576D01*
G37*
%TD.AperFunction*%
%TA.AperFunction,Conductor*%
G36*
X101482539Y-75520185D02*
G01*
X101528294Y-75572989D01*
X101539500Y-75624500D01*
X101539500Y-76819901D01*
X101519815Y-76886940D01*
X101503189Y-76907574D01*
X101497591Y-76913173D01*
X101436271Y-76946664D01*
X101409902Y-76949500D01*
X99143954Y-76949500D01*
X99076915Y-76929815D01*
X99031160Y-76877011D01*
X99022516Y-76825036D01*
X99020000Y-76825036D01*
X99020000Y-76650000D01*
X98620000Y-76650000D01*
X98620000Y-76250000D01*
X99020000Y-76250000D01*
X99020000Y-76081053D01*
X98993100Y-75945823D01*
X98993097Y-75945813D01*
X98940335Y-75818433D01*
X98940328Y-75818420D01*
X98863725Y-75703775D01*
X98863217Y-75703156D01*
X98863052Y-75702768D01*
X98860342Y-75698712D01*
X98861111Y-75698197D01*
X98835910Y-75638843D01*
X98847708Y-75569977D01*
X98894865Y-75518421D01*
X98959078Y-75500500D01*
X101415500Y-75500500D01*
X101482539Y-75520185D01*
G37*
%TD.AperFunction*%
%TD*%
M02*
